<?xml version="1.0" encoding="UTF-8" standalone="no"?>
<svg xmlns="http://www.w3.org/2000/svg" version="1.1" width="259.02" height="255.19">
  <rect width="100%" height="100%" fill="#FFFFFF"/>
  <!-- SCORE LINES (Inner Folds) -->
  <g stroke="#0000FF" stroke-width="0.1" stroke-dasharray="2,2" fill="none">
    <line x1="99.48" y1="77.08" x2="106.32" y2="77.08"/>
    <line x1="106.32" y1="77.08" x2="106.20" y2="75.83"/>
    <line x1="106.20" y1="75.83" x2="99.48" y2="77.08"/>
    <line x1="99.48" y1="77.08" x2="106.20" y2="78.32"/>
    <line x1="106.20" y1="78.32" x2="106.32" y2="77.08"/>
    <line x1="106.32" y1="77.08" x2="112.97" y2="77.04"/>
    <line x1="105.87" y1="74.63" x2="99.48" y2="77.08"/>
    <line x1="106.20" y1="75.83" x2="105.87" y2="74.63"/>
    <line x1="99.48" y1="77.08" x2="105.87" y2="79.52"/>
    <line x1="105.87" y1="79.52" x2="106.20" y2="78.32"/>
    <line x1="106.20" y1="78.32" x2="112.75" y2="79.50"/>
    <line x1="112.78" y1="79.43" x2="112.97" y2="77.04"/>
    <line x1="112.97" y1="77.04" x2="112.75" y2="74.66"/>
    <line x1="105.32" y1="73.51" x2="99.48" y2="77.08"/>
    <line x1="105.87" y1="74.63" x2="105.32" y2="73.51"/>
    <line x1="99.48" y1="77.08" x2="105.32" y2="80.64"/>
    <line x1="105.32" y1="80.64" x2="105.87" y2="79.52"/>
    <line x1="105.87" y1="79.52" x2="112.09" y2="81.87"/>
    <line x1="112.13" y1="81.81" x2="112.75" y2="79.50"/>
    <line x1="112.78" y1="79.43" x2="119.18" y2="80.47"/>
    <line x1="104.57" y1="72.51" x2="99.48" y2="77.08"/>
    <line x1="105.32" y1="73.51" x2="104.57" y2="72.51"/>
    <line x1="112.74" y1="74.59" x2="112.09" y2="72.29"/>
    <line x1="99.48" y1="77.08" x2="104.57" y2="81.65"/>
    <line x1="104.57" y1="81.65" x2="105.32" y2="80.64"/>
    <line x1="105.32" y1="80.64" x2="111.01" y2="84.08"/>
    <line x1="111.06" y1="84.03" x2="112.09" y2="81.87"/>
    <line x1="112.13" y1="81.81" x2="118.24" y2="84.00"/>
    <line x1="118.35" y1="83.82" x2="119.18" y2="80.47"/>
    <line x1="119.18" y1="80.47" x2="119.46" y2="77.04"/>
    <line x1="119.46" y1="76.97" x2="119.15" y2="73.55"/>
    <line x1="103.65" y1="71.66" x2="99.48" y2="77.08"/>
    <line x1="104.57" y1="72.51" x2="103.65" y2="71.66"/>
    <line x1="112.07" y1="72.22" x2="111.01" y2="70.07"/>
    <line x1="99.48" y1="77.08" x2="103.65" y2="82.49"/>
    <line x1="103.65" y1="82.49" x2="104.57" y2="81.65"/>
    <line x1="104.57" y1="81.65" x2="109.54" y2="86.06"/>
    <line x1="109.60" y1="86.02" x2="111.01" y2="84.08"/>
    <line x1="111.06" y1="84.03" x2="116.67" y2="87.29"/>
    <line x1="116.81" y1="87.14" x2="118.24" y2="84.00"/>
    <line x1="118.35" y1="83.82" x2="124.38" y2="85.80"/>
    <line x1="102.60" y1="70.99" x2="99.48" y2="77.08"/>
    <line x1="103.65" y1="71.66" x2="102.60" y2="70.99"/>
    <line x1="110.97" y1="70.01" x2="109.54" y2="68.09"/>
    <line x1="119.11" y1="73.34" x2="118.18" y2="70.03"/>
    <line x1="99.48" y1="77.08" x2="102.60" y2="83.16"/>
    <line x1="102.60" y1="83.16" x2="103.65" y2="82.49"/>
    <line x1="103.65" y1="82.49" x2="107.74" y2="87.74"/>
    <line x1="107.81" y1="87.71" x2="109.54" y2="86.06"/>
    <line x1="109.60" y1="86.02" x2="114.52" y2="90.25"/>
    <line x1="114.70" y1="90.12" x2="116.67" y2="87.29"/>
    <line x1="116.81" y1="87.14" x2="122.38" y2="90.18"/>
    <line x1="122.69" y1="89.87" x2="124.38" y2="85.80"/>
    <line x1="124.38" y1="85.80" x2="125.44" y2="81.53"/>
    <line x1="125.45" y1="81.46" x2="125.81" y2="77.08"/>
    <line x1="125.81" y1="76.87" x2="125.40" y2="72.49"/>
    <line x1="101.44" y1="70.52" x2="99.48" y2="77.08"/>
    <line x1="102.60" y1="70.99" x2="101.44" y2="70.52"/>
    <line x1="109.50" y1="68.04" x2="107.74" y2="66.41"/>
    <line x1="118.10" y1="69.84" x2="116.58" y2="66.75"/>
    <line x1="99.48" y1="77.08" x2="101.44" y2="83.63"/>
    <line x1="101.44" y1="83.63" x2="102.60" y2="83.16"/>
    <line x1="102.60" y1="83.16" x2="105.67" y2="89.07"/>
    <line x1="105.74" y1="89.05" x2="107.74" y2="87.74"/>
    <line x1="107.81" y1="87.71" x2="111.88" y2="92.76"/>
    <line x1="112.07" y1="92.67" x2="114.52" y2="90.25"/>
    <line x1="114.70" y1="90.12" x2="119.62" y2="94.13"/>
    <line x1="119.98" y1="93.87" x2="122.38" y2="90.18"/>
    <line x1="122.69" y1="89.87" x2="128.25" y2="92.66"/>
    <line x1="100.22" y1="70.28" x2="99.48" y2="77.08"/>
    <line x1="101.44" y1="70.52" x2="100.22" y2="70.28"/>
    <line x1="107.69" y1="66.37" x2="105.67" y2="65.09"/>
    <line x1="116.48" y1="66.57" x2="114.42" y2="63.81"/>
    <line x1="125.33" y1="72.09" x2="124.14" y2="67.85"/>
    <line x1="99.48" y1="77.08" x2="100.22" y2="83.88"/>
    <line x1="100.22" y1="83.88" x2="101.44" y2="83.63"/>
    <line x1="101.44" y1="83.63" x2="103.38" y2="89.99"/>
    <line x1="103.46" y1="89.98" x2="105.67" y2="89.07"/>
    <line x1="105.74" y1="89.05" x2="108.82" y2="94.76"/>
    <line x1="109.03" y1="94.70" x2="111.88" y2="92.76"/>
    <line x1="112.07" y1="92.67" x2="116.18" y2="97.51"/>
    <line x1="116.58" y1="97.32" x2="119.62" y2="94.13"/>
    <line x1="119.98" y1="93.87" x2="124.94" y2="97.63"/>
    <line x1="125.56" y1="97.20" x2="128.25" y2="92.66"/>
    <line x1="128.25" y1="92.66" x2="130.28" y2="87.78"/>
    <line x1="130.30" y1="87.72" x2="131.57" y2="82.60"/>
    <line x1="131.60" y1="82.40" x2="132.03" y2="77.14"/>
    <line x1="132.03" y1="76.74" x2="131.54" y2="71.49"/>
    <line x1="98.97" y1="70.26" x2="99.48" y2="77.08"/>
    <line x1="100.22" y1="70.28" x2="98.97" y2="70.26"/>
    <line x1="105.61" y1="65.06" x2="103.38" y2="64.16"/>
    <line x1="114.28" y1="63.66" x2="111.76" y2="61.32"/>
    <line x1="123.99" y1="67.48" x2="122.05" y2="63.52"/>
    <line x1="99.48" y1="77.08" x2="98.97" y2="83.90"/>
    <line x1="98.97" y1="83.90" x2="100.22" y2="83.88"/>
    <line x1="100.22" y1="83.88" x2="100.97" y2="90.49"/>
    <line x1="101.04" y1="90.49" x2="103.38" y2="89.99"/>
    <line x1="103.46" y1="89.98" x2="105.45" y2="96.16"/>
    <line x1="105.67" y1="96.14" x2="108.82" y2="94.76"/>
    <line x1="109.03" y1="94.70" x2="112.19" y2="100.20"/>
    <line x1="112.62" y1="100.09" x2="116.18" y2="97.51"/>
    <line x1="116.58" y1="97.32" x2="120.78" y2="101.91"/>
    <line x1="121.47" y1="101.60" x2="124.94" y2="97.63"/>
    <line x1="125.56" y1="97.20" x2="130.60" y2="100.65"/>
    <line x1="98.97" y1="70.26" x2="97.74" y2="70.46"/>
    <line x1="103.32" y1="64.14" x2="100.97" y2="63.67"/>
    <line x1="111.60" y1="61.19" x2="108.69" y2="59.35"/>
    <line x1="121.84" y1="63.18" x2="119.21" y2="59.65"/>
    <line x1="131.42" y1="70.83" x2="129.99" y2="65.75"/>
    <line x1="97.74" y1="83.69" x2="98.97" y2="83.90"/>
    <line x1="98.97" y1="83.90" x2="98.51" y2="90.54"/>
    <line x1="98.58" y1="90.55" x2="100.97" y2="90.49"/>
    <line x1="101.04" y1="90.49" x2="101.88" y2="96.93"/>
    <line x1="102.10" y1="96.95" x2="105.45" y2="96.16"/>
    <line x1="105.67" y1="96.14" x2="107.77" y2="102.13"/>
    <line x1="108.22" y1="102.10" x2="112.19" y2="100.20"/>
    <line x1="112.62" y1="100.09" x2="115.91" y2="105.37"/>
    <line x1="116.64" y1="105.19" x2="120.78" y2="101.91"/>
    <line x1="121.47" y1="101.60" x2="125.80" y2="105.91"/>
    <line x1="126.85" y1="105.43" x2="130.60" y2="100.65"/>
    <line x1="130.60" y1="100.65" x2="133.70" y2="95.42"/>
    <line x1="133.73" y1="95.37" x2="136.06" y2="89.76"/>
    <line x1="136.12" y1="89.57" x2="137.58" y2="83.68"/>
    <line x1="137.65" y1="83.29" x2="138.14" y2="77.24"/>
    <line x1="138.13" y1="76.58" x2="137.58" y2="70.53"/>
    <line x1="100.90" y1="63.66" x2="98.51" y2="63.62"/>
    <line x1="108.51" y1="59.25" x2="105.31" y2="57.97"/>
    <line x1="118.94" y1="59.35" x2="115.71" y2="56.35"/>
    <line x1="129.76" y1="65.13" x2="127.43" y2="60.39"/>
    <line x1="96.14" y1="90.17" x2="98.51" y2="90.54"/>
    <line x1="98.58" y1="90.55" x2="98.23" y2="97.03"/>
    <line x1="98.44" y1="97.09" x2="101.88" y2="96.93"/>
    <line x1="102.10" y1="96.95" x2="103.08" y2="103.22"/>
    <line x1="103.52" y1="103.27" x2="107.77" y2="102.13"/>
    <line x1="108.22" y1="102.10" x2="110.49" y2="107.89"/>
    <line x1="111.25" y1="107.84" x2="115.91" y2="105.37"/>
    <line x1="116.64" y1="105.19" x2="120.12" y2="110.22"/>
    <line x1="121.24" y1="109.93" x2="125.80" y2="105.91"/>
    <line x1="126.85" y1="105.43" x2="131.35" y2="109.42"/>
    <line x1="98.44" y1="63.62" x2="96.08" y2="64.02"/>
    <line x1="105.12" y1="57.91" x2="101.74" y2="57.22"/>
    <line x1="115.39" y1="56.10" x2="111.67" y2="53.74"/>
    <line x1="127.08" y1="59.83" x2="123.93" y2="55.59"/>
    <line x1="137.40" y1="69.57" x2="135.76" y2="63.72"/>
    <line x1="96.14" y1="90.17" x2="94.63" y2="96.47"/>
    <line x1="94.82" y1="96.57" x2="98.23" y2="97.03"/>
    <line x1="98.44" y1="97.09" x2="98.27" y2="103.44"/>
    <line x1="98.69" y1="103.57" x2="103.08" y2="103.22"/>
    <line x1="103.52" y1="103.27" x2="104.71" y2="109.38"/>
    <line x1="105.46" y1="109.47" x2="110.49" y2="107.89"/>
    <line x1="111.25" y1="107.84" x2="113.75" y2="113.42"/>
    <line x1="114.91" y1="113.34" x2="120.12" y2="110.22"/>
    <line x1="121.24" y1="109.93" x2="124.94" y2="114.68"/>
    <line x1="126.54" y1="114.23" x2="131.35" y2="109.42"/>
    <line x1="131.35" y1="109.42" x2="135.55" y2="104.07"/>
    <line x1="135.58" y1="104.02" x2="139.05" y2="98.17"/>
    <line x1="139.14" y1="98.01" x2="141.75" y2="91.73"/>
    <line x1="141.87" y1="91.37" x2="143.50" y2="84.77"/>
    <line x1="143.60" y1="84.14" x2="144.15" y2="77.36"/>
    <line x1="144.15" y1="76.40" x2="143.53" y2="69.63"/>
    <line x1="101.54" y1="57.20" x2="98.09" y2="57.14"/>
    <line x1="111.31" y1="53.56" x2="107.23" y2="51.92"/>
    <line x1="123.48" y1="55.10" x2="119.61" y2="51.50"/>
    <line x1="135.40" y1="62.80" x2="132.72" y2="57.34"/>
    <line x1="91.35" y1="95.40" x2="94.63" y2="96.47"/>
    <line x1="94.82" y1="96.57" x2="93.50" y2="102.78"/>
    <line x1="93.89" y1="102.98" x2="98.27" y2="103.44"/>
    <line x1="98.69" y1="103.57" x2="98.75" y2="109.79"/>
    <line x1="99.47" y1="110.02" x2="104.71" y2="109.38"/>
    <line x1="105.46" y1="109.47" x2="106.91" y2="115.41"/>
    <line x1="108.06" y1="115.54" x2="113.75" y2="113.42"/>
    <line x1="114.91" y1="113.34" x2="117.68" y2="118.68"/>
    <line x1="119.34" y1="118.53" x2="124.94" y2="114.68"/>
    <line x1="126.54" y1="114.23" x2="130.50" y2="118.64"/>
    <line x1="106.84" y1="51.80" x2="102.53" y2="50.93"/>
    <line x1="119.09" y1="51.10" x2="114.63" y2="48.27"/>
    <line x1="132.21" y1="56.50" x2="128.58" y2="51.63"/>
    <line x1="143.28" y1="68.29" x2="141.44" y2="61.74"/>
    <line x1="89.27" y1="101.54" x2="93.50" y2="102.78"/>
    <line x1="93.89" y1="102.98" x2="92.82" y2="109.11"/>
    <line x1="93.48" y1="109.47" x2="98.75" y2="109.79"/>
    <line x1="99.47" y1="110.02" x2="99.81" y2="116.12"/>
    <line x1="100.92" y1="116.46" x2="106.91" y2="115.41"/>
    <line x1="108.06" y1="115.54" x2="109.82" y2="121.29"/>
    <line x1="111.47" y1="121.45" x2="117.68" y2="118.68"/>
    <line x1="119.34" y1="118.53" x2="122.43" y2="123.59"/>
    <line x1="124.69" y1="123.30" x2="130.50" y2="118.64"/>
    <line x1="130.50" y1="118.64" x2="135.77" y2="113.38"/>
    <line x1="135.81" y1="113.33" x2="140.41" y2="107.47"/>
    <line x1="140.51" y1="107.32" x2="144.31" y2="100.92"/>
    <line x1="144.48" y1="100.58" x2="147.34" y2="93.70"/>
    <line x1="147.54" y1="93.11" x2="149.33" y2="85.88"/>
    <line x1="149.48" y1="84.94" x2="150.08" y2="77.52"/>
    <line x1="150.07" y1="76.18" x2="149.39" y2="68.76"/>
    <line x1="102.12" y1="50.88" x2="97.72" y2="50.81"/>
    <line x1="114.04" y1="47.97" x2="109.14" y2="46.00"/>
    <line x1="127.92" y1="50.90" x2="123.47" y2="46.76"/>
    <line x1="140.95" y1="60.47" x2="137.95" y2="54.37"/>
    <line x1="89.27" y1="101.54" x2="87.10" y2="107.37"/>
    <line x1="87.69" y1="107.84" x2="92.82" y2="109.11"/>
    <line x1="93.48" y1="109.47" x2="92.71" y2="115.53"/>
    <line x1="93.74" y1="116.07" x2="99.81" y2="116.12"/>
    <line x1="100.92" y1="116.46" x2="101.61" y2="122.44"/>
    <line x1="103.21" y1="122.89" x2="109.82" y2="121.29"/>
    <line x1="111.47" y1="121.45" x2="113.59" y2="126.99"/>
    <line x1="115.87" y1="127.11" x2="122.43" y2="123.59"/>
    <line x1="124.69" y1="123.30" x2="128.12" y2="128.05"/>
    <line x1="108.50" y1="45.80" x2="103.33" y2="44.76"/>
    <line x1="122.69" y1="46.16" x2="117.56" y2="42.91"/>
    <line x1="137.24" y1="53.21" x2="133.18" y2="47.76"/>
    <line x1="149.07" y1="67.00" x2="147.05" y2="59.83"/>
    <line x1="82.30" y1="105.18" x2="87.10" y2="107.37"/>
    <line x1="87.69" y1="107.84" x2="85.83" y2="113.66"/>
    <line x1="86.75" y1="114.37" x2="92.71" y2="115.53"/>
    <line x1="93.74" y1="116.07" x2="93.33" y2="122.07"/>
    <line x1="94.82" y1="122.80" x2="101.61" y2="122.44"/>
    <line x1="103.21" y1="122.89" x2="104.28" y2="128.72"/>
    <line x1="106.50" y1="129.26" x2="113.59" y2="126.99"/>
    <line x1="115.87" y1="127.11" x2="118.38" y2="132.40"/>
    <line x1="121.39" y1="132.42" x2="128.12" y2="128.05"/>
    <line x1="128.12" y1="128.05" x2="134.39" y2="123.03"/>
    <line x1="134.43" y1="122.99" x2="140.11" y2="117.31"/>
    <line x1="140.23" y1="117.17" x2="145.19" y2="110.86"/>
    <line x1="145.40" y1="110.55" x2="149.49" y2="103.65"/>
    <line x1="149.77" y1="103.09" x2="152.85" y2="95.68"/>
    <line x1="153.14" y1="94.79" x2="155.07" y2="87.00"/>
    <line x1="155.29" y1="85.70" x2="155.93" y2="77.70"/>
    <line x1="155.93" y1="75.93" x2="155.19" y2="67.94"/>
    <line x1="116.68" y1="42.46" x2="111.05" y2="40.19"/>
    <line x1="132.27" y1="46.74" x2="127.29" y2="42.12"/>
    <line x1="146.41" y1="58.15" x2="143.12" y2="51.47"/>
    <line x1="80.18" y1="111.44" x2="85.83" y2="113.66"/>
    <line x1="86.75" y1="114.37" x2="85.25" y2="120.20"/>
    <line x1="86.58" y1="121.19" x2="93.33" y2="122.07"/>
    <line x1="94.82" y1="122.80" x2="94.81" y2="128.73"/>
    <line x1="96.90" y1="129.67" x2="104.28" y2="128.72"/>
    <line x1="106.50" y1="129.26" x2="108.01" y2="134.92"/>
    <line x1="110.97" y1="135.48" x2="118.38" y2="132.40"/>
    <line x1="121.39" y1="132.42" x2="124.33" y2="137.41"/>
    <line x1="110.10" y1="39.91" x2="104.15" y2="38.70"/>
    <line x1="126.21" y1="41.29" x2="120.47" y2="37.64"/>
    <line x1="142.19" y1="49.93" x2="137.74" y2="43.96"/>
    <line x1="154.78" y1="65.69" x2="152.60" y2="57.96"/>
    <line x1="80.18" y1="111.44" x2="77.65" y2="116.89"/>
    <line x1="78.78" y1="118.12" x2="85.25" y2="120.20"/>
    <line x1="86.58" y1="121.19" x2="85.50" y2="127.03"/>
    <line x1="87.38" y1="128.32" x2="94.81" y2="128.73"/>
    <line x1="96.90" y1="129.67" x2="97.35" y2="135.51"/>
    <line x1="100.16" y1="136.60" x2="108.01" y2="134.92"/>
    <line x1="110.97" y1="135.48" x2="112.95" y2="140.93"/>
    <line x1="116.79" y1="141.42" x2="124.33" y2="137.41"/>
    <line x1="124.33" y1="137.41" x2="131.49" y2="132.76"/>
    <line x1="131.54" y1="132.72" x2="138.21" y2="127.38"/>
    <line x1="138.34" y1="127.26" x2="144.38" y2="121.22"/>
    <line x1="144.62" y1="120.95" x2="149.90" y2="114.23"/>
    <line x1="150.24" y1="113.73" x2="154.60" y2="106.38"/>
    <line x1="155.01" y1="105.55" x2="158.29" y2="97.67"/>
    <line x1="158.70" y1="96.43" x2="160.75" y2="88.14"/>
    <line x1="161.03" y1="86.43" x2="161.72" y2="77.91"/>
    <line x1="161.71" y1="75.66" x2="160.93" y2="67.16"/>
    <line x1="119.26" y1="37.02" x2="112.95" y2="34.48"/>
    <line x1="136.54" y1="42.62" x2="131.08" y2="37.56"/>
    <line x1="151.79" y1="55.83" x2="148.24" y2="48.63"/>
    <line x1="71.66" y1="113.67" x2="77.65" y2="116.89"/>
    <line x1="78.78" y1="118.12" x2="76.65" y2="123.65"/>
    <line x1="78.27" y1="125.27" x2="85.50" y2="127.03"/>
    <line x1="87.38" y1="128.32" x2="86.76" y2="134.14"/>
    <line x1="89.33" y1="135.73" x2="97.35" y2="135.51"/>
    <line x1="100.16" y1="136.60" x2="101.12" y2="142.31"/>
    <line x1="104.80" y1="143.49" x2="112.95" y2="140.93"/>
    <line x1="116.79" y1="141.42" x2="119.28" y2="146.59"/>
    <line x1="129.66" y1="36.46" x2="123.37" y2="32.47"/>
    <line x1="147.05" y1="46.67" x2="142.26" y2="40.23"/>
    <line x1="160.42" y1="64.37" x2="158.11" y2="56.15"/>
    <line x1="69.86" y1="120.61" x2="76.65" y2="123.65"/>
    <line x1="78.27" y1="125.27" x2="76.60" y2="130.88"/>
    <line x1="78.83" y1="132.91" x2="86.76" y2="134.14"/>
    <line x1="89.33" y1="135.73" x2="89.23" y2="141.52"/>
    <line x1="92.64" y1="143.35" x2="101.12" y2="142.31"/>
    <line x1="104.80" y1="143.49" x2="106.31" y2="149.03"/>
    <line x1="111.03" y1="150.17" x2="119.28" y2="146.59"/>
    <line x1="119.28" y1="146.59" x2="127.22" y2="142.37"/>
    <line x1="127.27" y1="142.34" x2="134.81" y2="137.44"/>
    <line x1="134.95" y1="137.34" x2="141.97" y2="131.72"/>
    <line x1="142.24" y1="131.47" x2="148.59" y2="125.12"/>
    <line x1="149.00" y1="124.67" x2="154.55" y2="117.59"/>
    <line x1="155.06" y1="116.84" x2="159.65" y2="109.11"/>
    <line x1="160.22" y1="107.96" x2="163.67" y2="99.66"/>
    <line x1="164.21" y1="98.03" x2="166.37" y2="89.30"/>
    <line x1="166.73" y1="87.11" x2="167.46" y2="78.15"/>
    <line x1="167.44" y1="75.36" x2="166.62" y2="66.41"/>
    <line x1="121.77" y1="31.65" x2="114.86" y2="28.87"/>
    <line x1="140.73" y1="38.53" x2="134.85" y2="33.07"/>
    <line x1="157.09" y1="53.51" x2="153.32" y2="45.84"/>
    <line x1="69.86" y1="120.61" x2="67.20" y2="125.83"/>
    <line x1="69.03" y1="128.22" x2="76.60" y2="130.88"/>
    <line x1="78.83" y1="132.91" x2="77.69" y2="138.59"/>
    <line x1="80.71" y1="141.01" x2="89.23" y2="141.52"/>
    <line x1="92.64" y1="143.35" x2="93.12" y2="149.07"/>
    <line x1="97.55" y1="151.05" x2="106.31" y2="149.03"/>
    <line x1="111.03" y1="150.17" x2="113.12" y2="155.46"/>
    <line x1="133.04" y1="31.67" x2="126.26" y2="27.37"/>
    <line x1="151.85" y1="43.42" x2="146.75" y2="36.57"/>
    <line x1="166.00" y1="63.04" x2="163.56" y2="54.38"/>
    <line x1="60.24" y1="121.84" x2="67.20" y2="125.83"/>
    <line x1="69.03" y1="128.22" x2="66.87" y2="133.60"/>
    <line x1="69.40" y1="136.53" x2="77.69" y2="138.59"/>
    <line x1="80.71" y1="141.01" x2="80.14" y2="146.71"/>
    <line x1="84.14" y1="149.47" x2="93.12" y2="149.07"/>
    <line x1="97.55" y1="151.05" x2="98.64" y2="156.63"/>
    <line x1="104.28" y1="158.60" x2="113.12" y2="155.46"/>
    <line x1="113.12" y1="155.46" x2="121.72" y2="151.73"/>
    <line x1="121.77" y1="151.70" x2="130.05" y2="147.31"/>
    <line x1="130.21" y1="147.22" x2="138.07" y2="142.11"/>
    <line x1="138.36" y1="141.90" x2="145.67" y2="136.03"/>
    <line x1="146.12" y1="135.63" x2="152.75" y2="129.00"/>
    <line x1="153.35" y1="128.33" x2="159.14" y2="120.96"/>
    <line x1="159.86" y1="119.91" x2="164.64" y2="111.84"/>
    <line x1="165.40" y1="110.33" x2="169.00" y2="101.67"/>
    <line x1="169.69" y1="99.58" x2="171.94" y2="90.48"/>
    <line x1="172.38" y1="87.76" x2="173.14" y2="78.42"/>
    <line x1="173.12" y1="75.03" x2="172.27" y2="65.70"/>
    <line x1="144.86" y1="34.47" x2="138.60" y2="28.65"/>
    <line x1="162.34" y1="51.18" x2="158.37" y2="43.11"/>
    <line x1="59.09" y1="130.07" x2="66.87" y2="133.60"/>
    <line x1="69.40" y1="136.53" x2="67.80" y2="142.04"/>
    <line x1="71.23" y1="145.47" x2="80.14" y2="146.71"/>
    <line x1="84.14" y1="149.47" x2="84.19" y2="155.16"/>
    <line x1="89.38" y1="158.12" x2="98.64" y2="156.63"/>
    <line x1="104.28" y1="158.60" x2="106.02" y2="163.98"/>
    <line x1="136.36" y1="26.93" x2="129.14" y2="22.35"/>
    <line x1="156.58" y1="40.18" x2="151.21" y2="32.97"/>
    <line x1="171.53" y1="61.68" x2="168.99" y2="52.66"/>
    <line x1="59.09" y1="130.07" x2="56.52" y2="135.20"/>
    <line x1="59.27" y1="139.20" x2="67.80" y2="142.04"/>
    <line x1="71.23" y1="145.47" x2="70.25" y2="151.08"/>
    <line x1="74.82" y1="154.93" x2="84.19" y2="155.16"/>
    <line x1="89.38" y1="158.12" x2="90.12" y2="163.72"/>
    <line x1="96.71" y1="166.70" x2="106.02" y2="163.98"/>
    <line x1="106.02" y1="163.98" x2="115.16" y2="160.73"/>
    <line x1="115.22" y1="160.71" x2="124.12" y2="156.84"/>
    <line x1="124.28" y1="156.77" x2="132.84" y2="152.22"/>
    <line x1="133.15" y1="152.04" x2="141.28" y2="146.75"/>
    <line x1="141.76" y1="146.41" x2="149.33" y2="140.34"/>
    <line x1="150.00" y1="139.74" x2="156.86" y2="132.89"/>
    <line x1="157.69" y1="131.95" x2="163.68" y2="124.32"/>
    <line x1="164.63" y1="122.93" x2="169.58" y2="114.58"/>
    <line x1="170.55" y1="112.64" x2="174.28" y2="103.69"/>
    <line x1="175.13" y1="101.10" x2="177.46" y2="91.69"/>
    <line x1="178.00" y1="88.38" x2="178.78" y2="78.71"/>
    <line x1="178.76" y1="74.68" x2="177.88" y2="65.02"/>
    <line x1="148.92" y1="30.42" x2="142.33" y2="24.30"/>
    <line x1="167.53" y1="48.84" x2="163.39" y2="40.43"/>
    <line x1="48.65" y1="130.85" x2="56.52" y2="135.20"/>
    <line x1="59.27" y1="139.20" x2="57.29" y2="144.53"/>
    <line x1="61.08" y1="149.15" x2="70.25" y2="151.08"/>
    <line x1="74.82" y1="154.93" x2="74.52" y2="160.58"/>
    <line x1="80.47" y1="164.70" x2="90.12" y2="163.72"/>
    <line x1="96.71" y1="166.70" x2="98.16" y2="172.13"/>
    <line x1="161.26" y1="36.94" x2="155.66" y2="29.42"/>
    <line x1="177.01" y1="60.31" x2="174.38" y2="50.97"/>
    <line x1="48.62" y1="140.97" x2="57.29" y2="144.53"/>
    <line x1="61.08" y1="149.15" x2="59.76" y2="154.65"/>
    <line x1="64.86" y1="159.79" x2="74.52" y2="160.58"/>
    <line x1="80.47" y1="164.70" x2="80.91" y2="170.31"/>
    <line x1="88.48" y1="174.47" x2="98.16" y2="172.13"/>
    <line x1="98.16" y1="172.13" x2="107.73" y2="169.33"/>
    <line x1="107.78" y1="169.32" x2="117.17" y2="165.98"/>
    <line x1="117.33" y1="165.91" x2="126.47" y2="161.94"/>
    <line x1="126.79" y1="161.79" x2="135.59" y2="157.12"/>
    <line x1="136.10" y1="156.82" x2="144.45" y2="151.39"/>
    <line x1="145.17" y1="150.87" x2="152.95" y2="144.64"/>
    <line x1="153.88" y1="143.81" x2="160.92" y2="136.77"/>
    <line x1="162.03" y1="135.52" x2="168.18" y2="127.68"/>
    <line x1="169.40" y1="125.91" x2="174.48" y2="117.34"/>
    <line x1="175.69" y1="114.92" x2="179.51" y2="105.72"/>
    <line x1="180.55" y1="102.58" x2="182.95" y2="92.91"/>
    <line x1="183.59" y1="88.97" x2="184.39" y2="79.04"/>
    <line x1="184.37" y1="74.30" x2="183.46" y2="64.38"/>
    <line x1="152.93" y1="26.38" x2="146.06" y2="20.00"/>
    <line x1="172.67" y1="46.49" x2="168.39" y2="37.79"/>
    <line x1="48.62" y1="140.97" x2="46.32" y2="146.14"/>
    <line x1="50.40" y1="152.12" x2="59.76" y2="154.65"/>
    <line x1="64.86" y1="159.79" x2="64.27" y2="165.38"/>
    <line x1="70.96" y1="170.85" x2="80.91" y2="170.31"/>
    <line x1="88.48" y1="174.47" x2="89.70" y2="179.93"/>
    <line x1="165.89" y1="33.70" x2="160.10" y2="25.92"/>
    <line x1="182.45" y1="58.91" x2="179.75" y2="49.32"/>
    <line x1="37.57" y1="141.94" x2="46.32" y2="146.14"/>
    <line x1="50.40" y1="152.12" x2="48.80" y2="157.50"/>
    <line x1="54.39" y1="164.10" x2="64.27" y2="165.38"/>
    <line x1="70.96" y1="170.85" x2="71.16" y2="176.44"/>
    <line x1="79.73" y1="181.96" x2="89.70" y2="179.93"/>
    <line x1="89.70" y1="179.93" x2="99.58" y2="177.54"/>
    <line x1="99.64" y1="177.53" x2="109.39" y2="174.67"/>
    <line x1="109.56" y1="174.62" x2="119.14" y2="171.21"/>
    <line x1="119.47" y1="171.08" x2="128.79" y2="167.03"/>
    <line x1="129.32" y1="166.78" x2="138.30" y2="162.01"/>
    <line x1="139.06" y1="161.57" x2="147.59" y2="156.02"/>
    <line x1="148.59" y1="155.30" x2="156.53" y2="148.94"/>
    <line x1="157.76" y1="147.84" x2="164.95" y2="140.65"/>
    <line x1="166.37" y1="139.05" x2="172.64" y2="131.05"/>
    <line x1="174.16" y1="128.85" x2="179.34" y2="120.10"/>
    <line x1="180.81" y1="117.17" x2="184.72" y2="107.78"/>
    <line x1="185.96" y1="104.02" x2="188.40" y2="94.15"/>
    <line x1="189.16" y1="89.52" x2="189.98" y2="79.39"/>
    <line x1="189.95" y1="73.89" x2="189.02" y2="63.77"/>
    <line x1="177.77" y1="44.13" x2="173.37" y2="35.19"/>
    <line x1="39.32" y1="154.46" x2="48.80" y2="157.50"/>
    <line x1="54.39" y1="164.10" x2="53.57" y2="169.64"/>
    <line x1="61.00" y1="176.62" x2="71.16" y2="176.44"/>
    <line x1="79.73" y1="181.96" x2="80.77" y2="187.44"/>
    <line x1="170.47" y1="30.45" x2="164.52" y2="22.46"/>
    <line x1="187.86" y1="57.50" x2="185.11" y2="47.71"/>
    <line x1="39.32" y1="154.46" x2="37.51" y2="159.75"/>
    <line x1="43.54" y1="167.97" x2="53.57" y2="169.64"/>
    <line x1="61.00" y1="176.62" x2="61.02" y2="182.20"/>
    <line x1="70.62" y1="189.23" x2="80.77" y2="187.44"/>
    <line x1="80.77" y1="187.44" x2="90.88" y2="185.38"/>
    <line x1="90.94" y1="185.37" x2="100.96" y2="182.94"/>
    <line x1="101.13" y1="182.90" x2="111.03" y2="180.00"/>
    <line x1="111.36" y1="179.90" x2="121.08" y2="176.44"/>
    <line x1="121.62" y1="176.23" x2="131.08" y2="172.12"/>
    <line x1="131.87" y1="171.74" x2="140.98" y2="166.90"/>
    <line x1="142.04" y1="166.28" x2="150.69" y2="160.66"/>
    <line x1="152.02" y1="159.69" x2="160.07" y2="153.25"/>
    <line x1="161.65" y1="151.83" x2="168.94" y2="144.54"/>
    <line x1="170.71" y1="142.55" x2="177.07" y2="134.44"/>
    <line x1="178.92" y1="131.75" x2="184.17" y2="122.88"/>
    <line x1="185.93" y1="119.37" x2="189.89" y2="109.85"/>
    <line x1="191.35" y1="105.43" x2="193.83" y2="95.42"/>
    <line x1="194.71" y1="90.04" x2="195.54" y2="79.77"/>
    <line x1="195.51" y1="73.45" x2="194.57" y2="63.18"/>
    <line x1="182.83" y1="41.76" x2="178.34" y2="32.63"/>
    <line x1="27.95" y1="156.29" x2="37.51" y2="159.75"/>
    <line x1="43.54" y1="167.97" x2="42.56" y2="173.46"/>
    <line x1="50.71" y1="182.12" x2="61.02" y2="182.20"/>
    <line x1="70.62" y1="189.23" x2="71.54" y2="194.72"/>
    <line x1="193.25" y1="56.06" x2="190.46" y2="46.13"/>
    <line x1="32.43" y1="171.50" x2="42.56" y2="173.46"/>
    <line x1="50.71" y1="182.12" x2="50.62" y2="187.68"/>
    <line x1="61.28" y1="196.37" x2="71.54" y2="194.72"/>
    <line x1="71.54" y1="194.72" x2="81.79" y2="192.91"/>
    <line x1="81.84" y1="192.90" x2="92.03" y2="190.82"/>
    <line x1="92.20" y1="190.78" x2="102.31" y2="188.34"/>
    <line x1="102.65" y1="188.25" x2="112.63" y2="185.33"/>
    <line x1="113.18" y1="185.15" x2="122.98" y2="181.67"/>
    <line x1="123.80" y1="181.35" x2="133.34" y2="177.20"/>
    <line x1="134.44" y1="176.67" x2="143.63" y2="171.80"/>
    <line x1="145.04" y1="170.97" x2="153.76" y2="165.30"/>
    <line x1="155.47" y1="164.06" x2="163.58" y2="157.56"/>
    <line x1="165.55" y1="155.80" x2="172.91" y2="148.44"/>
    <line x1="175.05" y1="146.02" x2="181.48" y2="137.84"/>
    <line x1="183.68" y1="134.63" x2="188.98" y2="125.68"/>
    <line x1="191.05" y1="121.55" x2="195.04" y2="111.95"/>
    <line x1="196.74" y1="106.81" x2="199.24" y2="96.72"/>
    <line x1="200.25" y1="90.54" x2="201.09" y2="80.17"/>
    <line x1="201.05" y1="72.99" x2="200.10" y2="62.63"/>
    <line x1="187.86" y1="39.36" x2="183.31" y2="30.11"/>
    <line x1="32.43" y1="171.50" x2="31.33" y2="176.96"/>
    <line x1="40.23" y1="187.43" x2="50.62" y2="187.68"/>
    <line x1="61.28" y1="196.37" x2="62.14" y2="201.85"/>
    <line x1="198.61" y1="54.59" x2="195.80" y2="44.58"/>
    <line x1="21.15" y1="174.82" x2="31.33" y2="176.96"/>
    <line x1="40.23" y1="187.43" x2="40.08" y2="192.99"/>
    <line x1="51.84" y1="203.45" x2="62.14" y2="201.85"/>
    <line x1="62.14" y1="201.85" x2="72.44" y2="200.20"/>
    <line x1="72.50" y1="200.19" x2="82.77" y2="198.38"/>
    <line x1="82.94" y1="198.35" x2="93.16" y2="196.26"/>
    <line x1="93.50" y1="196.19" x2="103.63" y2="193.74"/>
    <line x1="104.19" y1="193.59" x2="114.20" y2="190.66"/>
    <line x1="115.03" y1="190.39" x2="124.86" y2="186.90"/>
    <line x1="126.00" y1="186.45" x2="135.56" y2="182.29"/>
    <line x1="137.03" y1="181.59" x2="146.24" y2="176.70"/>
    <line x1="148.05" y1="175.63" x2="156.80" y2="169.95"/>
    <line x1="158.93" y1="168.41" x2="167.07" y2="161.89"/>
    <line x1="169.47" y1="159.74" x2="176.84" y2="152.36"/>
    <line x1="179.42" y1="149.46" x2="185.86" y2="141.26"/>
    <line x1="188.45" y1="137.47" x2="193.77" y2="128.50"/>
    <line x1="196.18" y1="123.70" x2="200.18" y2="114.07"/>
    <line x1="202.13" y1="108.16" x2="204.63" y2="98.04"/>
    <line x1="205.78" y1="91.00" x2="206.63" y2="80.61"/>
    <line x1="206.58" y1="72.50" x2="205.63" y2="62.11"/>
    <line x1="29.66" y1="192.69" x2="40.08" y2="192.99"/>
  </g>
  <!-- CUT LINES (Outer Boundaries) -->
  <g stroke="#FF0000" stroke-width="0.1" fill="none">
    <line x1="97.74" y1="83.69" x2="99.48" y2="77.08"/>
    <line x1="97.74" y1="70.46" x2="99.48" y2="77.08"/>
    <line x1="106.20" y1="75.83" x2="112.75" y2="74.66"/>
    <line x1="106.32" y1="77.08" x2="112.75" y2="79.50"/>
    <line x1="106.32" y1="77.08" x2="112.78" y2="79.43"/>
    <line x1="106.20" y1="78.32" x2="112.09" y2="81.87"/>
    <line x1="106.20" y1="78.32" x2="112.13" y2="81.81"/>
    <line x1="105.87" y1="79.52" x2="111.01" y2="84.08"/>
    <line x1="105.87" y1="79.52" x2="111.06" y2="84.03"/>
    <line x1="105.32" y1="80.64" x2="109.54" y2="86.06"/>
    <line x1="105.32" y1="80.64" x2="109.60" y2="86.02"/>
    <line x1="104.57" y1="81.65" x2="107.74" y2="87.74"/>
    <line x1="104.57" y1="81.65" x2="107.81" y2="87.71"/>
    <line x1="103.65" y1="82.49" x2="105.67" y2="89.07"/>
    <line x1="103.65" y1="82.49" x2="105.74" y2="89.05"/>
    <line x1="102.60" y1="83.16" x2="103.38" y2="89.99"/>
    <line x1="102.60" y1="83.16" x2="103.46" y2="89.98"/>
    <line x1="100.97" y1="90.49" x2="101.44" y2="83.63"/>
    <line x1="101.04" y1="90.49" x2="101.44" y2="83.63"/>
    <line x1="98.51" y1="90.54" x2="100.22" y2="83.88"/>
    <line x1="98.58" y1="90.55" x2="100.22" y2="83.88"/>
    <line x1="96.08" y1="90.14" x2="97.74" y2="83.69"/>
    <line x1="96.08" y1="90.14" x2="98.97" y2="83.90"/>
    <line x1="96.14" y1="90.17" x2="98.97" y2="83.90"/>
    <line x1="98.44" y1="63.62" x2="98.97" y2="70.26"/>
    <line x1="96.08" y1="64.02" x2="97.74" y2="70.46"/>
    <line x1="100.22" y1="70.28" x2="100.90" y2="63.66"/>
    <line x1="98.51" y1="63.62" x2="98.97" y2="70.26"/>
    <line x1="101.44" y1="70.52" x2="103.32" y2="64.14"/>
    <line x1="100.22" y1="70.28" x2="100.97" y2="63.67"/>
    <line x1="102.60" y1="70.99" x2="105.61" y2="65.06"/>
    <line x1="101.44" y1="70.52" x2="103.38" y2="64.16"/>
    <line x1="103.65" y1="71.66" x2="107.69" y2="66.37"/>
    <line x1="102.60" y1="70.99" x2="105.67" y2="65.09"/>
    <line x1="104.57" y1="72.51" x2="109.50" y2="68.04"/>
    <line x1="103.65" y1="71.66" x2="107.74" y2="66.41"/>
    <line x1="105.32" y1="73.51" x2="110.97" y2="70.01"/>
    <line x1="104.57" y1="72.51" x2="109.54" y2="68.09"/>
    <line x1="105.87" y1="74.63" x2="112.07" y2="72.22"/>
    <line x1="105.32" y1="73.51" x2="111.01" y2="70.07"/>
    <line x1="106.20" y1="75.83" x2="112.74" y2="74.59"/>
    <line x1="105.87" y1="74.63" x2="112.09" y2="72.29"/>
    <line x1="112.97" y1="77.04" x2="119.46" y2="76.97"/>
    <line x1="112.75" y1="74.66" x2="119.15" y2="73.55"/>
    <line x1="112.97" y1="77.04" x2="119.46" y2="77.04"/>
    <line x1="112.75" y1="79.50" x2="118.24" y2="84.00"/>
    <line x1="112.78" y1="79.43" x2="118.35" y2="83.82"/>
    <line x1="112.09" y1="81.87" x2="116.67" y2="87.29"/>
    <line x1="112.13" y1="81.81" x2="116.81" y2="87.14"/>
    <line x1="111.01" y1="84.08" x2="114.52" y2="90.25"/>
    <line x1="111.06" y1="84.03" x2="114.70" y2="90.12"/>
    <line x1="109.54" y1="86.06" x2="111.88" y2="92.76"/>
    <line x1="109.60" y1="86.02" x2="112.07" y2="92.67"/>
    <line x1="107.74" y1="87.74" x2="108.82" y2="94.76"/>
    <line x1="107.81" y1="87.71" x2="109.03" y2="94.70"/>
    <line x1="105.45" y1="96.16" x2="105.67" y2="89.07"/>
    <line x1="105.67" y1="96.14" x2="105.74" y2="89.05"/>
    <line x1="101.88" y1="96.93" x2="103.38" y2="89.99"/>
    <line x1="102.10" y1="96.95" x2="103.46" y2="89.98"/>
    <line x1="98.23" y1="97.03" x2="100.97" y2="90.49"/>
    <line x1="98.44" y1="97.09" x2="101.04" y2="90.49"/>
    <line x1="94.63" y1="96.47" x2="98.51" y2="90.54"/>
    <line x1="94.82" y1="96.57" x2="98.58" y2="90.55"/>
    <line x1="97.89" y1="57.16" x2="98.44" y2="63.62"/>
    <line x1="96.08" y1="64.02" x2="97.89" y2="57.16"/>
    <line x1="91.35" y1="95.40" x2="96.14" y2="90.17"/>
    <line x1="100.90" y1="63.66" x2="101.54" y2="57.20"/>
    <line x1="98.09" y1="57.14" x2="98.51" y2="63.62"/>
    <line x1="103.32" y1="64.14" x2="105.12" y2="57.91"/>
    <line x1="100.97" y1="63.67" x2="101.74" y2="57.22"/>
    <line x1="105.61" y1="65.06" x2="108.51" y2="59.25"/>
    <line x1="103.38" y1="64.16" x2="105.31" y2="57.97"/>
    <line x1="107.69" y1="66.37" x2="111.60" y2="61.19"/>
    <line x1="105.67" y1="65.09" x2="108.69" y2="59.35"/>
    <line x1="109.50" y1="68.04" x2="114.28" y2="63.66"/>
    <line x1="107.74" y1="66.41" x2="111.76" y2="61.32"/>
    <line x1="110.97" y1="70.01" x2="116.48" y2="66.57"/>
    <line x1="109.54" y1="68.09" x2="114.42" y2="63.81"/>
    <line x1="112.07" y1="72.22" x2="118.10" y2="69.84"/>
    <line x1="111.01" y1="70.07" x2="116.58" y2="66.75"/>
    <line x1="112.74" y1="74.59" x2="119.11" y2="73.34"/>
    <line x1="112.09" y1="72.29" x2="118.18" y2="70.03"/>
    <line x1="119.46" y1="76.97" x2="125.81" y2="76.87"/>
    <line x1="119.15" y1="73.55" x2="125.40" y2="72.49"/>
    <line x1="119.18" y1="80.47" x2="125.45" y2="81.46"/>
    <line x1="119.46" y1="77.04" x2="125.81" y2="77.08"/>
    <line x1="119.18" y1="80.47" x2="125.44" y2="81.53"/>
    <line x1="118.24" y1="84.00" x2="122.38" y2="90.18"/>
    <line x1="118.35" y1="83.82" x2="122.69" y2="89.87"/>
    <line x1="116.67" y1="87.29" x2="119.62" y2="94.13"/>
    <line x1="116.81" y1="87.14" x2="119.98" y2="93.87"/>
    <line x1="114.52" y1="90.25" x2="116.18" y2="97.51"/>
    <line x1="114.70" y1="90.12" x2="116.58" y2="97.32"/>
    <line x1="111.88" y1="92.76" x2="112.19" y2="100.20"/>
    <line x1="112.07" y1="92.67" x2="112.62" y2="100.09"/>
    <line x1="107.77" y1="102.13" x2="108.82" y2="94.76"/>
    <line x1="108.22" y1="102.10" x2="109.03" y2="94.70"/>
    <line x1="103.08" y1="103.22" x2="105.45" y2="96.16"/>
    <line x1="103.52" y1="103.27" x2="105.67" y2="96.14"/>
    <line x1="98.27" y1="103.44" x2="101.88" y2="96.93"/>
    <line x1="98.69" y1="103.57" x2="102.10" y2="96.95"/>
    <line x1="93.50" y1="102.78" x2="98.23" y2="97.03"/>
    <line x1="93.89" y1="102.98" x2="98.44" y2="97.09"/>
    <line x1="88.92" y1="101.26" x2="91.35" y2="95.40"/>
    <line x1="88.92" y1="101.26" x2="94.63" y2="96.47"/>
    <line x1="89.27" y1="101.54" x2="94.82" y2="96.57"/>
    <line x1="101.54" y1="57.20" x2="102.12" y2="50.88"/>
    <line x1="97.72" y1="50.81" x2="98.09" y2="57.14"/>
    <line x1="105.12" y1="57.91" x2="106.84" y2="51.80"/>
    <line x1="101.74" y1="57.22" x2="102.53" y2="50.93"/>
    <line x1="108.51" y1="59.25" x2="111.31" y2="53.56"/>
    <line x1="105.31" y1="57.97" x2="107.23" y2="51.92"/>
    <line x1="111.60" y1="61.19" x2="115.39" y2="56.10"/>
    <line x1="108.69" y1="59.35" x2="111.67" y2="53.74"/>
    <line x1="114.28" y1="63.66" x2="118.94" y2="59.35"/>
    <line x1="111.76" y1="61.32" x2="115.71" y2="56.35"/>
    <line x1="116.48" y1="66.57" x2="121.84" y2="63.18"/>
    <line x1="114.42" y1="63.81" x2="119.21" y2="59.65"/>
    <line x1="118.10" y1="69.84" x2="123.99" y2="67.48"/>
    <line x1="116.58" y1="66.75" x2="122.05" y2="63.52"/>
    <line x1="119.11" y1="73.34" x2="125.33" y2="72.09"/>
    <line x1="118.18" y1="70.03" x2="124.14" y2="67.85"/>
    <line x1="125.81" y1="76.87" x2="132.03" y2="76.74"/>
    <line x1="125.40" y1="72.49" x2="131.54" y2="71.49"/>
    <line x1="125.45" y1="81.46" x2="131.60" y2="82.40"/>
    <line x1="125.81" y1="77.08" x2="132.03" y2="77.14"/>
    <line x1="124.38" y1="85.80" x2="130.30" y2="87.72"/>
    <line x1="125.44" y1="81.53" x2="131.57" y2="82.60"/>
    <line x1="124.38" y1="85.80" x2="130.28" y2="87.78"/>
    <line x1="122.38" y1="90.18" x2="124.94" y2="97.63"/>
    <line x1="122.69" y1="89.87" x2="125.56" y2="97.20"/>
    <line x1="119.62" y1="94.13" x2="120.78" y2="101.91"/>
    <line x1="119.98" y1="93.87" x2="121.47" y2="101.60"/>
    <line x1="115.91" y1="105.37" x2="116.18" y2="97.51"/>
    <line x1="116.58" y1="97.32" x2="116.64" y2="105.19"/>
    <line x1="110.49" y1="107.89" x2="112.19" y2="100.20"/>
    <line x1="111.25" y1="107.84" x2="112.62" y2="100.09"/>
    <line x1="104.71" y1="109.38" x2="107.77" y2="102.13"/>
    <line x1="105.46" y1="109.47" x2="108.22" y2="102.10"/>
    <line x1="98.75" y1="109.79" x2="103.08" y2="103.22"/>
    <line x1="99.47" y1="110.02" x2="103.52" y2="103.27"/>
    <line x1="92.82" y1="109.11" x2="98.27" y2="103.44"/>
    <line x1="93.48" y1="109.47" x2="98.69" y2="103.57"/>
    <line x1="87.10" y1="107.37" x2="93.50" y2="102.78"/>
    <line x1="87.69" y1="107.84" x2="93.89" y2="102.98"/>
    <line x1="102.12" y1="50.88" x2="102.67" y2="44.68"/>
    <line x1="97.72" y1="50.81" x2="102.67" y2="44.68"/>
    <line x1="82.30" y1="105.18" x2="89.27" y2="101.54"/>
    <line x1="106.84" y1="51.80" x2="108.50" y2="45.80"/>
    <line x1="102.53" y1="50.93" x2="103.33" y2="44.76"/>
    <line x1="111.31" y1="53.56" x2="114.04" y2="47.97"/>
    <line x1="107.23" y1="51.92" x2="109.14" y2="46.00"/>
    <line x1="115.39" y1="56.10" x2="119.09" y2="51.10"/>
    <line x1="111.67" y1="53.74" x2="114.63" y2="48.27"/>
    <line x1="118.94" y1="59.35" x2="123.48" y2="55.10"/>
    <line x1="115.71" y1="56.35" x2="119.61" y2="51.50"/>
    <line x1="121.84" y1="63.18" x2="127.08" y2="59.83"/>
    <line x1="119.21" y1="59.65" x2="123.93" y2="55.59"/>
    <line x1="123.99" y1="67.48" x2="129.76" y2="65.13"/>
    <line x1="122.05" y1="63.52" x2="127.43" y2="60.39"/>
    <line x1="125.33" y1="72.09" x2="131.42" y2="70.83"/>
    <line x1="124.14" y1="67.85" x2="129.99" y2="65.75"/>
    <line x1="132.03" y1="76.74" x2="138.13" y2="76.58"/>
    <line x1="131.54" y1="71.49" x2="137.58" y2="70.53"/>
    <line x1="131.60" y1="82.40" x2="137.65" y2="83.29"/>
    <line x1="132.03" y1="77.14" x2="138.14" y2="77.24"/>
    <line x1="130.30" y1="87.72" x2="136.12" y2="89.57"/>
    <line x1="131.57" y1="82.60" x2="137.58" y2="83.68"/>
    <line x1="128.25" y1="92.66" x2="133.73" y2="95.37"/>
    <line x1="130.28" y1="87.78" x2="136.06" y2="89.76"/>
    <line x1="128.25" y1="92.66" x2="133.70" y2="95.42"/>
    <line x1="124.94" y1="97.63" x2="125.80" y2="105.91"/>
    <line x1="125.56" y1="97.20" x2="126.85" y2="105.43"/>
    <line x1="120.12" y1="110.22" x2="120.78" y2="101.91"/>
    <line x1="121.24" y1="109.93" x2="121.47" y2="101.60"/>
    <line x1="113.75" y1="113.42" x2="115.91" y2="105.37"/>
    <line x1="114.91" y1="113.34" x2="116.64" y2="105.19"/>
    <line x1="106.91" y1="115.41" x2="110.49" y2="107.89"/>
    <line x1="108.06" y1="115.54" x2="111.25" y2="107.84"/>
    <line x1="99.81" y1="116.12" x2="104.71" y2="109.38"/>
    <line x1="100.92" y1="116.46" x2="105.46" y2="109.47"/>
    <line x1="92.71" y1="115.53" x2="98.75" y2="109.79"/>
    <line x1="93.74" y1="116.07" x2="99.47" y2="110.02"/>
    <line x1="85.83" y1="113.66" x2="92.82" y2="109.11"/>
    <line x1="86.75" y1="114.37" x2="93.48" y2="109.47"/>
    <line x1="79.41" y1="110.57" x2="82.30" y2="105.18"/>
    <line x1="79.41" y1="110.57" x2="87.10" y2="107.37"/>
    <line x1="80.18" y1="111.44" x2="87.69" y2="107.84"/>
    <line x1="108.50" y1="45.80" x2="110.10" y2="39.91"/>
    <line x1="103.33" y1="44.76" x2="104.15" y2="38.70"/>
    <line x1="114.04" y1="47.97" x2="116.68" y2="42.46"/>
    <line x1="109.14" y1="46.00" x2="111.05" y2="40.19"/>
    <line x1="119.09" y1="51.10" x2="122.69" y2="46.16"/>
    <line x1="114.63" y1="48.27" x2="117.56" y2="42.91"/>
    <line x1="123.48" y1="55.10" x2="127.92" y2="50.90"/>
    <line x1="119.61" y1="51.50" x2="123.47" y2="46.76"/>
    <line x1="127.08" y1="59.83" x2="132.21" y2="56.50"/>
    <line x1="123.93" y1="55.59" x2="128.58" y2="51.63"/>
    <line x1="129.76" y1="65.13" x2="135.40" y2="62.80"/>
    <line x1="127.43" y1="60.39" x2="132.72" y2="57.34"/>
    <line x1="131.42" y1="70.83" x2="137.40" y2="69.57"/>
    <line x1="129.99" y1="65.75" x2="135.76" y2="63.72"/>
    <line x1="138.13" y1="76.58" x2="144.15" y2="76.40"/>
    <line x1="137.58" y1="70.53" x2="143.53" y2="69.63"/>
    <line x1="137.65" y1="83.29" x2="143.60" y2="84.14"/>
    <line x1="138.14" y1="77.24" x2="144.15" y2="77.36"/>
    <line x1="136.12" y1="89.57" x2="141.87" y2="91.37"/>
    <line x1="137.58" y1="83.68" x2="143.50" y2="84.77"/>
    <line x1="133.73" y1="95.37" x2="139.14" y2="98.01"/>
    <line x1="136.06" y1="89.76" x2="141.75" y2="91.73"/>
    <line x1="130.60" y1="100.65" x2="135.58" y2="104.02"/>
    <line x1="133.70" y1="95.42" x2="139.05" y2="98.17"/>
    <line x1="130.60" y1="100.65" x2="135.55" y2="104.07"/>
    <line x1="124.94" y1="114.68" x2="125.80" y2="105.91"/>
    <line x1="126.54" y1="114.23" x2="126.85" y2="105.43"/>
    <line x1="117.68" y1="118.68" x2="120.12" y2="110.22"/>
    <line x1="119.34" y1="118.53" x2="121.24" y2="109.93"/>
    <line x1="109.82" y1="121.29" x2="113.75" y2="113.42"/>
    <line x1="111.47" y1="121.45" x2="114.91" y2="113.34"/>
    <line x1="101.61" y1="122.44" x2="106.91" y2="115.41"/>
    <line x1="103.21" y1="122.89" x2="108.06" y2="115.54"/>
    <line x1="93.33" y1="122.07" x2="99.81" y2="116.12"/>
    <line x1="94.82" y1="122.80" x2="100.92" y2="116.46"/>
    <line x1="85.25" y1="120.20" x2="92.71" y2="115.53"/>
    <line x1="86.58" y1="121.19" x2="93.74" y2="116.07"/>
    <line x1="77.65" y1="116.89" x2="85.83" y2="113.66"/>
    <line x1="78.78" y1="118.12" x2="86.75" y2="114.37"/>
    <line x1="110.10" y1="39.91" x2="111.65" y2="34.09"/>
    <line x1="104.15" y1="38.70" x2="111.65" y2="34.09"/>
    <line x1="71.66" y1="113.67" x2="80.18" y2="111.44"/>
    <line x1="116.68" y1="42.46" x2="119.26" y2="37.02"/>
    <line x1="111.05" y1="40.19" x2="112.95" y2="34.48"/>
    <line x1="122.69" y1="46.16" x2="126.21" y2="41.29"/>
    <line x1="117.56" y1="42.91" x2="120.47" y2="37.64"/>
    <line x1="127.92" y1="50.90" x2="132.27" y2="46.74"/>
    <line x1="123.47" y1="46.76" x2="127.29" y2="42.12"/>
    <line x1="132.21" y1="56.50" x2="137.24" y2="53.21"/>
    <line x1="128.58" y1="51.63" x2="133.18" y2="47.76"/>
    <line x1="135.40" y1="62.80" x2="140.95" y2="60.47"/>
    <line x1="132.72" y1="57.34" x2="137.95" y2="54.37"/>
    <line x1="137.40" y1="69.57" x2="143.28" y2="68.29"/>
    <line x1="135.76" y1="63.72" x2="141.44" y2="61.74"/>
    <line x1="144.15" y1="76.40" x2="150.07" y2="76.18"/>
    <line x1="143.53" y1="69.63" x2="149.39" y2="68.76"/>
    <line x1="143.60" y1="84.14" x2="149.48" y2="84.94"/>
    <line x1="144.15" y1="77.36" x2="150.08" y2="77.52"/>
    <line x1="141.87" y1="91.37" x2="147.54" y2="93.11"/>
    <line x1="143.50" y1="84.77" x2="149.33" y2="85.88"/>
    <line x1="139.14" y1="98.01" x2="144.48" y2="100.58"/>
    <line x1="141.75" y1="91.73" x2="147.34" y2="93.70"/>
    <line x1="135.58" y1="104.02" x2="140.51" y2="107.32"/>
    <line x1="139.05" y1="98.17" x2="144.31" y2="100.92"/>
    <line x1="131.35" y1="109.42" x2="135.81" y2="113.33"/>
    <line x1="135.55" y1="104.07" x2="140.41" y2="107.47"/>
    <line x1="131.35" y1="109.42" x2="135.77" y2="113.38"/>
    <line x1="122.43" y1="123.59" x2="124.94" y2="114.68"/>
    <line x1="124.69" y1="123.30" x2="126.54" y2="114.23"/>
    <line x1="113.59" y1="126.99" x2="117.68" y2="118.68"/>
    <line x1="115.87" y1="127.11" x2="119.34" y2="118.53"/>
    <line x1="104.28" y1="128.72" x2="109.82" y2="121.29"/>
    <line x1="106.50" y1="129.26" x2="111.47" y2="121.45"/>
    <line x1="94.81" y1="128.73" x2="101.61" y2="122.44"/>
    <line x1="96.90" y1="129.67" x2="103.21" y2="122.89"/>
    <line x1="85.50" y1="127.03" x2="93.33" y2="122.07"/>
    <line x1="87.38" y1="128.32" x2="94.82" y2="122.80"/>
    <line x1="76.65" y1="123.65" x2="85.25" y2="120.20"/>
    <line x1="78.27" y1="125.27" x2="86.58" y2="121.19"/>
    <line x1="68.57" y1="118.73" x2="71.66" y2="113.67"/>
    <line x1="68.57" y1="118.73" x2="77.65" y2="116.89"/>
    <line x1="69.86" y1="120.61" x2="78.78" y2="118.12"/>
    <line x1="119.26" y1="37.02" x2="121.77" y2="31.65"/>
    <line x1="112.95" y1="34.48" x2="114.86" y2="28.87"/>
    <line x1="126.21" y1="41.29" x2="129.66" y2="36.46"/>
    <line x1="120.47" y1="37.64" x2="123.37" y2="32.47"/>
    <line x1="132.27" y1="46.74" x2="136.54" y2="42.62"/>
    <line x1="127.29" y1="42.12" x2="131.08" y2="37.56"/>
    <line x1="137.24" y1="53.21" x2="142.19" y2="49.93"/>
    <line x1="133.18" y1="47.76" x2="137.74" y2="43.96"/>
    <line x1="140.95" y1="60.47" x2="146.41" y2="58.15"/>
    <line x1="137.95" y1="54.37" x2="143.12" y2="51.47"/>
    <line x1="143.28" y1="68.29" x2="149.07" y2="67.00"/>
    <line x1="141.44" y1="61.74" x2="147.05" y2="59.83"/>
    <line x1="150.07" y1="76.18" x2="155.93" y2="75.93"/>
    <line x1="149.39" y1="68.76" x2="155.19" y2="67.94"/>
    <line x1="149.48" y1="84.94" x2="155.29" y2="85.70"/>
    <line x1="150.08" y1="77.52" x2="155.93" y2="77.70"/>
    <line x1="147.54" y1="93.11" x2="153.14" y2="94.79"/>
    <line x1="149.33" y1="85.88" x2="155.07" y2="87.00"/>
    <line x1="144.48" y1="100.58" x2="149.77" y2="103.09"/>
    <line x1="147.34" y1="93.70" x2="152.85" y2="95.68"/>
    <line x1="140.51" y1="107.32" x2="145.40" y2="110.55"/>
    <line x1="144.31" y1="100.92" x2="149.49" y2="103.65"/>
    <line x1="135.81" y1="113.33" x2="140.23" y2="117.17"/>
    <line x1="140.41" y1="107.47" x2="145.19" y2="110.86"/>
    <line x1="130.50" y1="118.64" x2="134.43" y2="122.99"/>
    <line x1="135.77" y1="113.38" x2="140.11" y2="117.31"/>
    <line x1="130.50" y1="118.64" x2="134.39" y2="123.03"/>
    <line x1="118.38" y1="132.40" x2="122.43" y2="123.59"/>
    <line x1="121.39" y1="132.42" x2="124.69" y2="123.30"/>
    <line x1="108.01" y1="134.92" x2="113.59" y2="126.99"/>
    <line x1="110.97" y1="135.48" x2="115.87" y2="127.11"/>
    <line x1="97.35" y1="135.51" x2="104.28" y2="128.72"/>
    <line x1="100.16" y1="136.60" x2="106.50" y2="129.26"/>
    <line x1="86.76" y1="134.14" x2="94.81" y2="128.73"/>
    <line x1="89.33" y1="135.73" x2="96.90" y2="129.67"/>
    <line x1="76.60" y1="130.88" x2="85.50" y2="127.03"/>
    <line x1="78.83" y1="132.91" x2="87.38" y2="128.32"/>
    <line x1="67.20" y1="125.83" x2="76.65" y2="123.65"/>
    <line x1="69.03" y1="128.22" x2="78.27" y2="125.27"/>
    <line x1="121.77" y1="31.65" x2="124.23" y2="26.33"/>
    <line x1="114.86" y1="28.87" x2="124.23" y2="26.33"/>
    <line x1="60.24" y1="121.84" x2="69.86" y2="120.61"/>
    <line x1="129.66" y1="36.46" x2="133.04" y2="31.67"/>
    <line x1="123.37" y1="32.47" x2="126.26" y2="27.37"/>
    <line x1="136.54" y1="42.62" x2="140.73" y2="38.53"/>
    <line x1="131.08" y1="37.56" x2="134.85" y2="33.07"/>
    <line x1="142.19" y1="49.93" x2="147.05" y2="46.67"/>
    <line x1="137.74" y1="43.96" x2="142.26" y2="40.23"/>
    <line x1="146.41" y1="58.15" x2="151.79" y2="55.83"/>
    <line x1="143.12" y1="51.47" x2="148.24" y2="48.63"/>
    <line x1="149.07" y1="67.00" x2="154.78" y2="65.69"/>
    <line x1="147.05" y1="59.83" x2="152.60" y2="57.96"/>
    <line x1="155.93" y1="75.93" x2="161.71" y2="75.66"/>
    <line x1="155.19" y1="67.94" x2="160.93" y2="67.16"/>
    <line x1="155.29" y1="85.70" x2="161.03" y2="86.43"/>
    <line x1="155.93" y1="77.70" x2="161.72" y2="77.91"/>
    <line x1="153.14" y1="94.79" x2="158.70" y2="96.43"/>
    <line x1="155.07" y1="87.00" x2="160.75" y2="88.14"/>
    <line x1="149.77" y1="103.09" x2="155.01" y2="105.55"/>
    <line x1="152.85" y1="95.68" x2="158.29" y2="97.67"/>
    <line x1="145.40" y1="110.55" x2="150.24" y2="113.73"/>
    <line x1="149.49" y1="103.65" x2="154.60" y2="106.38"/>
    <line x1="140.23" y1="117.17" x2="144.62" y2="120.95"/>
    <line x1="145.19" y1="110.86" x2="149.90" y2="114.23"/>
    <line x1="134.43" y1="122.99" x2="138.34" y2="127.26"/>
    <line x1="140.11" y1="117.31" x2="144.38" y2="121.22"/>
    <line x1="128.12" y1="128.05" x2="131.54" y2="132.72"/>
    <line x1="134.39" y1="123.03" x2="138.21" y2="127.38"/>
    <line x1="128.12" y1="128.05" x2="131.49" y2="132.76"/>
    <line x1="112.95" y1="140.93" x2="118.38" y2="132.40"/>
    <line x1="116.79" y1="141.42" x2="121.39" y2="132.42"/>
    <line x1="101.12" y1="142.31" x2="108.01" y2="134.92"/>
    <line x1="104.80" y1="143.49" x2="110.97" y2="135.48"/>
    <line x1="89.23" y1="141.52" x2="97.35" y2="135.51"/>
    <line x1="92.64" y1="143.35" x2="100.16" y2="136.60"/>
    <line x1="77.69" y1="138.59" x2="86.76" y2="134.14"/>
    <line x1="80.71" y1="141.01" x2="89.33" y2="135.73"/>
    <line x1="66.87" y1="133.60" x2="76.60" y2="130.88"/>
    <line x1="69.40" y1="136.53" x2="78.83" y2="132.91"/>
    <line x1="57.14" y1="126.73" x2="60.24" y2="121.84"/>
    <line x1="57.14" y1="126.73" x2="67.20" y2="125.83"/>
    <line x1="59.09" y1="130.07" x2="69.03" y2="128.22"/>
    <line x1="133.04" y1="31.67" x2="136.36" y2="26.93"/>
    <line x1="126.26" y1="27.37" x2="129.14" y2="22.35"/>
    <line x1="140.73" y1="38.53" x2="144.86" y2="34.47"/>
    <line x1="134.85" y1="33.07" x2="138.60" y2="28.65"/>
    <line x1="147.05" y1="46.67" x2="151.85" y2="43.42"/>
    <line x1="142.26" y1="40.23" x2="146.75" y2="36.57"/>
    <line x1="151.79" y1="55.83" x2="157.09" y2="53.51"/>
    <line x1="148.24" y1="48.63" x2="153.32" y2="45.84"/>
    <line x1="154.78" y1="65.69" x2="160.42" y2="64.37"/>
    <line x1="152.60" y1="57.96" x2="158.11" y2="56.15"/>
    <line x1="161.71" y1="75.66" x2="167.44" y2="75.36"/>
    <line x1="160.93" y1="67.16" x2="166.62" y2="66.41"/>
    <line x1="161.03" y1="86.43" x2="166.73" y2="87.11"/>
    <line x1="161.72" y1="77.91" x2="167.46" y2="78.15"/>
    <line x1="158.70" y1="96.43" x2="164.21" y2="98.03"/>
    <line x1="160.75" y1="88.14" x2="166.37" y2="89.30"/>
    <line x1="155.01" y1="105.55" x2="160.22" y2="107.96"/>
    <line x1="158.29" y1="97.67" x2="163.67" y2="99.66"/>
    <line x1="150.24" y1="113.73" x2="155.06" y2="116.84"/>
    <line x1="154.60" y1="106.38" x2="159.65" y2="109.11"/>
    <line x1="144.62" y1="120.95" x2="149.00" y2="124.67"/>
    <line x1="149.90" y1="114.23" x2="154.55" y2="117.59"/>
    <line x1="138.34" y1="127.26" x2="142.24" y2="131.47"/>
    <line x1="144.38" y1="121.22" x2="148.59" y2="125.12"/>
    <line x1="131.54" y1="132.72" x2="134.95" y2="137.34"/>
    <line x1="138.21" y1="127.38" x2="141.97" y2="131.72"/>
    <line x1="124.33" y1="137.41" x2="127.27" y2="142.34"/>
    <line x1="131.49" y1="132.76" x2="134.81" y2="137.44"/>
    <line x1="124.33" y1="137.41" x2="127.22" y2="142.37"/>
    <line x1="106.31" y1="149.03" x2="112.95" y2="140.93"/>
    <line x1="111.03" y1="150.17" x2="116.79" y2="141.42"/>
    <line x1="93.12" y1="149.07" x2="101.12" y2="142.31"/>
    <line x1="97.55" y1="151.05" x2="104.80" y2="143.49"/>
    <line x1="80.14" y1="146.71" x2="89.23" y2="141.52"/>
    <line x1="84.14" y1="149.47" x2="92.64" y2="143.35"/>
    <line x1="67.80" y1="142.04" x2="77.69" y2="138.59"/>
    <line x1="71.23" y1="145.47" x2="80.71" y2="141.01"/>
    <line x1="56.52" y1="135.20" x2="66.87" y2="133.60"/>
    <line x1="59.27" y1="139.20" x2="69.40" y2="136.53"/>
    <line x1="136.36" y1="26.93" x2="139.62" y2="22.20"/>
    <line x1="129.14" y1="22.35" x2="139.62" y2="22.20"/>
    <line x1="48.65" y1="130.85" x2="59.09" y2="130.07"/>
    <line x1="144.86" y1="34.47" x2="148.92" y2="30.42"/>
    <line x1="138.60" y1="28.65" x2="142.33" y2="24.30"/>
    <line x1="151.85" y1="43.42" x2="156.58" y2="40.18"/>
    <line x1="146.75" y1="36.57" x2="151.21" y2="32.97"/>
    <line x1="157.09" y1="53.51" x2="162.34" y2="51.18"/>
    <line x1="153.32" y1="45.84" x2="158.37" y2="43.11"/>
    <line x1="160.42" y1="64.37" x2="166.00" y2="63.04"/>
    <line x1="158.11" y1="56.15" x2="163.56" y2="54.38"/>
    <line x1="167.44" y1="75.36" x2="173.12" y2="75.03"/>
    <line x1="166.62" y1="66.41" x2="172.27" y2="65.70"/>
    <line x1="166.73" y1="87.11" x2="172.38" y2="87.76"/>
    <line x1="167.46" y1="78.15" x2="173.14" y2="78.42"/>
    <line x1="164.21" y1="98.03" x2="169.69" y2="99.58"/>
    <line x1="166.37" y1="89.30" x2="171.94" y2="90.48"/>
    <line x1="160.22" y1="107.96" x2="165.40" y2="110.33"/>
    <line x1="163.67" y1="99.66" x2="169.00" y2="101.67"/>
    <line x1="155.06" y1="116.84" x2="159.86" y2="119.91"/>
    <line x1="159.65" y1="109.11" x2="164.64" y2="111.84"/>
    <line x1="149.00" y1="124.67" x2="153.35" y2="128.33"/>
    <line x1="154.55" y1="117.59" x2="159.14" y2="120.96"/>
    <line x1="142.24" y1="131.47" x2="146.12" y2="135.63"/>
    <line x1="148.59" y1="125.12" x2="152.75" y2="129.00"/>
    <line x1="134.95" y1="137.34" x2="138.36" y2="141.90"/>
    <line x1="141.97" y1="131.72" x2="145.67" y2="136.03"/>
    <line x1="127.27" y1="142.34" x2="130.21" y2="147.22"/>
    <line x1="134.81" y1="137.44" x2="138.07" y2="142.11"/>
    <line x1="119.28" y1="146.59" x2="121.77" y2="151.70"/>
    <line x1="127.22" y1="142.37" x2="130.05" y2="147.31"/>
    <line x1="119.28" y1="146.59" x2="121.72" y2="151.73"/>
    <line x1="98.64" y1="156.63" x2="106.31" y2="149.03"/>
    <line x1="104.28" y1="158.60" x2="111.03" y2="150.17"/>
    <line x1="84.19" y1="155.16" x2="93.12" y2="149.07"/>
    <line x1="89.38" y1="158.12" x2="97.55" y2="151.05"/>
    <line x1="70.25" y1="151.08" x2="80.14" y2="146.71"/>
    <line x1="74.82" y1="154.93" x2="84.14" y2="149.47"/>
    <line x1="57.29" y1="144.53" x2="67.80" y2="142.04"/>
    <line x1="61.08" y1="149.15" x2="71.23" y2="145.47"/>
    <line x1="45.73" y1="135.74" x2="48.65" y2="130.85"/>
    <line x1="45.73" y1="135.74" x2="56.52" y2="135.20"/>
    <line x1="48.62" y1="140.97" x2="59.27" y2="139.20"/>
    <line x1="148.92" y1="30.42" x2="152.93" y2="26.38"/>
    <line x1="142.33" y1="24.30" x2="146.06" y2="20.00"/>
    <line x1="156.58" y1="40.18" x2="161.26" y2="36.94"/>
    <line x1="151.21" y1="32.97" x2="155.66" y2="29.42"/>
    <line x1="162.34" y1="51.18" x2="167.53" y2="48.84"/>
    <line x1="158.37" y1="43.11" x2="163.39" y2="40.43"/>
    <line x1="166.00" y1="63.04" x2="171.53" y2="61.68"/>
    <line x1="163.56" y1="54.38" x2="168.99" y2="52.66"/>
    <line x1="173.12" y1="75.03" x2="178.76" y2="74.68"/>
    <line x1="172.27" y1="65.70" x2="177.88" y2="65.02"/>
    <line x1="172.38" y1="87.76" x2="178.00" y2="88.38"/>
    <line x1="173.14" y1="78.42" x2="178.78" y2="78.71"/>
    <line x1="169.69" y1="99.58" x2="175.13" y2="101.10"/>
    <line x1="171.94" y1="90.48" x2="177.46" y2="91.69"/>
    <line x1="165.40" y1="110.33" x2="170.55" y2="112.64"/>
    <line x1="169.00" y1="101.67" x2="174.28" y2="103.69"/>
    <line x1="159.86" y1="119.91" x2="164.63" y2="122.93"/>
    <line x1="164.64" y1="111.84" x2="169.58" y2="114.58"/>
    <line x1="153.35" y1="128.33" x2="157.69" y2="131.95"/>
    <line x1="159.14" y1="120.96" x2="163.68" y2="124.32"/>
    <line x1="146.12" y1="135.63" x2="150.00" y2="139.74"/>
    <line x1="152.75" y1="129.00" x2="156.86" y2="132.89"/>
    <line x1="138.36" y1="141.90" x2="141.76" y2="146.41"/>
    <line x1="145.67" y1="136.03" x2="149.33" y2="140.34"/>
    <line x1="130.21" y1="147.22" x2="133.15" y2="152.04"/>
    <line x1="138.07" y1="142.11" x2="141.28" y2="146.75"/>
    <line x1="121.77" y1="151.70" x2="124.28" y2="156.77"/>
    <line x1="130.05" y1="147.31" x2="132.84" y2="152.22"/>
    <line x1="113.12" y1="155.46" x2="115.22" y2="160.71"/>
    <line x1="121.72" y1="151.73" x2="124.12" y2="156.84"/>
    <line x1="113.12" y1="155.46" x2="115.16" y2="160.73"/>
    <line x1="90.12" y1="163.72" x2="98.64" y2="156.63"/>
    <line x1="96.71" y1="166.70" x2="104.28" y2="158.60"/>
    <line x1="74.52" y1="160.58" x2="84.19" y2="155.16"/>
    <line x1="80.47" y1="164.70" x2="89.38" y2="158.12"/>
    <line x1="59.76" y1="154.65" x2="70.25" y2="151.08"/>
    <line x1="64.86" y1="159.79" x2="74.82" y2="154.93"/>
    <line x1="46.32" y1="146.14" x2="57.29" y2="144.53"/>
    <line x1="50.40" y1="152.12" x2="61.08" y2="149.15"/>
    <line x1="152.93" y1="26.38" x2="156.90" y2="22.35"/>
    <line x1="146.06" y1="20.00" x2="156.90" y2="22.35"/>
    <line x1="37.57" y1="141.94" x2="48.62" y2="140.97"/>
    <line x1="161.26" y1="36.94" x2="165.89" y2="33.70"/>
    <line x1="155.66" y1="29.42" x2="160.10" y2="25.92"/>
    <line x1="167.53" y1="48.84" x2="172.67" y2="46.49"/>
    <line x1="163.39" y1="40.43" x2="168.39" y2="37.79"/>
    <line x1="171.53" y1="61.68" x2="177.01" y2="60.31"/>
    <line x1="168.99" y1="52.66" x2="174.38" y2="50.97"/>
    <line x1="178.76" y1="74.68" x2="184.37" y2="74.30"/>
    <line x1="177.88" y1="65.02" x2="183.46" y2="64.38"/>
    <line x1="178.00" y1="88.38" x2="183.59" y2="88.97"/>
    <line x1="178.78" y1="78.71" x2="184.39" y2="79.04"/>
    <line x1="175.13" y1="101.10" x2="180.55" y2="102.58"/>
    <line x1="177.46" y1="91.69" x2="182.95" y2="92.91"/>
    <line x1="170.55" y1="112.64" x2="175.69" y2="114.92"/>
    <line x1="174.28" y1="103.69" x2="179.51" y2="105.72"/>
    <line x1="164.63" y1="122.93" x2="169.40" y2="125.91"/>
    <line x1="169.58" y1="114.58" x2="174.48" y2="117.34"/>
    <line x1="157.69" y1="131.95" x2="162.03" y2="135.52"/>
    <line x1="163.68" y1="124.32" x2="168.18" y2="127.68"/>
    <line x1="150.00" y1="139.74" x2="153.88" y2="143.81"/>
    <line x1="156.86" y1="132.89" x2="160.92" y2="136.77"/>
    <line x1="141.76" y1="146.41" x2="145.17" y2="150.87"/>
    <line x1="149.33" y1="140.34" x2="152.95" y2="144.64"/>
    <line x1="133.15" y1="152.04" x2="136.10" y2="156.82"/>
    <line x1="141.28" y1="146.75" x2="144.45" y2="151.39"/>
    <line x1="124.28" y1="156.77" x2="126.79" y2="161.79"/>
    <line x1="132.84" y1="152.22" x2="135.59" y2="157.12"/>
    <line x1="115.22" y1="160.71" x2="117.33" y2="165.91"/>
    <line x1="124.12" y1="156.84" x2="126.47" y2="161.94"/>
    <line x1="106.02" y1="163.98" x2="107.78" y2="169.32"/>
    <line x1="115.16" y1="160.73" x2="117.17" y2="165.98"/>
    <line x1="106.02" y1="163.98" x2="107.73" y2="169.33"/>
    <line x1="80.91" y1="170.31" x2="90.12" y2="163.72"/>
    <line x1="88.48" y1="174.47" x2="96.71" y2="166.70"/>
    <line x1="64.27" y1="165.38" x2="74.52" y2="160.58"/>
    <line x1="70.96" y1="170.85" x2="80.47" y2="164.70"/>
    <line x1="48.80" y1="157.50" x2="59.76" y2="154.65"/>
    <line x1="54.39" y1="164.10" x2="64.86" y2="159.79"/>
    <line x1="35.03" y1="146.95" x2="37.57" y2="141.94"/>
    <line x1="35.03" y1="146.95" x2="46.32" y2="146.14"/>
    <line x1="39.32" y1="154.46" x2="50.40" y2="152.12"/>
    <line x1="165.89" y1="33.70" x2="170.47" y2="30.45"/>
    <line x1="160.10" y1="25.92" x2="164.52" y2="22.46"/>
    <line x1="172.67" y1="46.49" x2="177.77" y2="44.13"/>
    <line x1="168.39" y1="37.79" x2="173.37" y2="35.19"/>
    <line x1="177.01" y1="60.31" x2="182.45" y2="58.91"/>
    <line x1="174.38" y1="50.97" x2="179.75" y2="49.32"/>
    <line x1="184.37" y1="74.30" x2="189.95" y2="73.89"/>
    <line x1="183.46" y1="64.38" x2="189.02" y2="63.77"/>
    <line x1="183.59" y1="88.97" x2="189.16" y2="89.52"/>
    <line x1="184.39" y1="79.04" x2="189.98" y2="79.39"/>
    <line x1="180.55" y1="102.58" x2="185.96" y2="104.02"/>
    <line x1="182.95" y1="92.91" x2="188.40" y2="94.15"/>
    <line x1="175.69" y1="114.92" x2="180.81" y2="117.17"/>
    <line x1="179.51" y1="105.72" x2="184.72" y2="107.78"/>
    <line x1="169.40" y1="125.91" x2="174.16" y2="128.85"/>
    <line x1="174.48" y1="117.34" x2="179.34" y2="120.10"/>
    <line x1="162.03" y1="135.52" x2="166.37" y2="139.05"/>
    <line x1="168.18" y1="127.68" x2="172.64" y2="131.05"/>
    <line x1="153.88" y1="143.81" x2="157.76" y2="147.84"/>
    <line x1="160.92" y1="136.77" x2="164.95" y2="140.65"/>
    <line x1="145.17" y1="150.87" x2="148.59" y2="155.30"/>
    <line x1="152.95" y1="144.64" x2="156.53" y2="148.94"/>
    <line x1="136.10" y1="156.82" x2="139.06" y2="161.57"/>
    <line x1="144.45" y1="151.39" x2="147.59" y2="156.02"/>
    <line x1="126.79" y1="161.79" x2="129.32" y2="166.78"/>
    <line x1="135.59" y1="157.12" x2="138.30" y2="162.01"/>
    <line x1="117.33" y1="165.91" x2="119.47" y2="171.08"/>
    <line x1="126.47" y1="161.94" x2="128.79" y2="167.03"/>
    <line x1="107.78" y1="169.32" x2="109.56" y2="174.62"/>
    <line x1="117.17" y1="165.98" x2="119.14" y2="171.21"/>
    <line x1="98.16" y1="172.13" x2="99.64" y2="177.53"/>
    <line x1="107.73" y1="169.33" x2="109.39" y2="174.67"/>
    <line x1="98.16" y1="172.13" x2="99.58" y2="177.54"/>
    <line x1="71.16" y1="176.44" x2="80.91" y2="170.31"/>
    <line x1="79.73" y1="181.96" x2="88.48" y2="174.47"/>
    <line x1="53.57" y1="169.64" x2="64.27" y2="165.38"/>
    <line x1="61.00" y1="176.62" x2="70.96" y2="170.85"/>
    <line x1="37.51" y1="159.75" x2="48.80" y2="157.50"/>
    <line x1="43.54" y1="167.97" x2="54.39" y2="164.10"/>
    <line x1="170.47" y1="30.45" x2="175.02" y2="27.19"/>
    <line x1="164.52" y1="22.46" x2="175.02" y2="27.19"/>
    <line x1="27.95" y1="156.29" x2="39.32" y2="154.46"/>
    <line x1="177.77" y1="44.13" x2="182.83" y2="41.76"/>
    <line x1="173.37" y1="35.19" x2="178.34" y2="32.63"/>
    <line x1="182.45" y1="58.91" x2="187.86" y2="57.50"/>
    <line x1="179.75" y1="49.32" x2="185.11" y2="47.71"/>
    <line x1="189.95" y1="73.89" x2="195.51" y2="73.45"/>
    <line x1="189.02" y1="63.77" x2="194.57" y2="63.18"/>
    <line x1="189.16" y1="89.52" x2="194.71" y2="90.04"/>
    <line x1="189.98" y1="79.39" x2="195.54" y2="79.77"/>
    <line x1="185.96" y1="104.02" x2="191.35" y2="105.43"/>
    <line x1="188.40" y1="94.15" x2="193.83" y2="95.42"/>
    <line x1="180.81" y1="117.17" x2="185.93" y2="119.37"/>
    <line x1="184.72" y1="107.78" x2="189.89" y2="109.85"/>
    <line x1="174.16" y1="128.85" x2="178.92" y2="131.75"/>
    <line x1="179.34" y1="120.10" x2="184.17" y2="122.88"/>
    <line x1="166.37" y1="139.05" x2="170.71" y2="142.55"/>
    <line x1="172.64" y1="131.05" x2="177.07" y2="134.44"/>
    <line x1="157.76" y1="147.84" x2="161.65" y2="151.83"/>
    <line x1="164.95" y1="140.65" x2="168.94" y2="144.54"/>
    <line x1="148.59" y1="155.30" x2="152.02" y2="159.69"/>
    <line x1="156.53" y1="148.94" x2="160.07" y2="153.25"/>
    <line x1="139.06" y1="161.57" x2="142.04" y2="166.28"/>
    <line x1="147.59" y1="156.02" x2="150.69" y2="160.66"/>
    <line x1="129.32" y1="166.78" x2="131.87" y2="171.74"/>
    <line x1="138.30" y1="162.01" x2="140.98" y2="166.90"/>
    <line x1="119.47" y1="171.08" x2="121.62" y2="176.23"/>
    <line x1="128.79" y1="167.03" x2="131.08" y2="172.12"/>
    <line x1="109.56" y1="174.62" x2="111.36" y2="179.90"/>
    <line x1="119.14" y1="171.21" x2="121.08" y2="176.44"/>
    <line x1="99.64" y1="177.53" x2="101.13" y2="182.90"/>
    <line x1="109.39" y1="174.67" x2="111.03" y2="180.00"/>
    <line x1="89.70" y1="179.93" x2="90.94" y2="185.37"/>
    <line x1="99.58" y1="177.54" x2="100.96" y2="182.94"/>
    <line x1="89.70" y1="179.93" x2="90.88" y2="185.38"/>
    <line x1="61.02" y1="182.20" x2="71.16" y2="176.44"/>
    <line x1="70.62" y1="189.23" x2="79.73" y2="181.96"/>
    <line x1="42.56" y1="173.46" x2="53.57" y2="169.64"/>
    <line x1="50.71" y1="182.12" x2="61.00" y2="176.62"/>
    <line x1="25.98" y1="161.50" x2="27.95" y2="156.29"/>
    <line x1="25.98" y1="161.50" x2="37.51" y2="159.75"/>
    <line x1="32.43" y1="171.50" x2="43.54" y2="167.97"/>
    <line x1="182.83" y1="41.76" x2="187.86" y2="39.36"/>
    <line x1="178.34" y1="32.63" x2="183.31" y2="30.11"/>
    <line x1="187.86" y1="57.50" x2="193.25" y2="56.06"/>
    <line x1="185.11" y1="47.71" x2="190.46" y2="46.13"/>
    <line x1="195.51" y1="73.45" x2="201.05" y2="72.99"/>
    <line x1="194.57" y1="63.18" x2="200.10" y2="62.63"/>
    <line x1="194.71" y1="90.04" x2="200.25" y2="90.54"/>
    <line x1="195.54" y1="79.77" x2="201.09" y2="80.17"/>
    <line x1="191.35" y1="105.43" x2="196.74" y2="106.81"/>
    <line x1="193.83" y1="95.42" x2="199.24" y2="96.72"/>
    <line x1="185.93" y1="119.37" x2="191.05" y2="121.55"/>
    <line x1="189.89" y1="109.85" x2="195.04" y2="111.95"/>
    <line x1="178.92" y1="131.75" x2="183.68" y2="134.63"/>
    <line x1="184.17" y1="122.88" x2="188.98" y2="125.68"/>
    <line x1="170.71" y1="142.55" x2="175.05" y2="146.02"/>
    <line x1="177.07" y1="134.44" x2="181.48" y2="137.84"/>
    <line x1="161.65" y1="151.83" x2="165.55" y2="155.80"/>
    <line x1="168.94" y1="144.54" x2="172.91" y2="148.44"/>
    <line x1="152.02" y1="159.69" x2="155.47" y2="164.06"/>
    <line x1="160.07" y1="153.25" x2="163.58" y2="157.56"/>
    <line x1="142.04" y1="166.28" x2="145.04" y2="170.97"/>
    <line x1="150.69" y1="160.66" x2="153.76" y2="165.30"/>
    <line x1="131.87" y1="171.74" x2="134.44" y2="176.67"/>
    <line x1="140.98" y1="166.90" x2="143.63" y2="171.80"/>
    <line x1="121.62" y1="176.23" x2="123.80" y2="181.35"/>
    <line x1="131.08" y1="172.12" x2="133.34" y2="177.20"/>
    <line x1="111.36" y1="179.90" x2="113.18" y2="185.15"/>
    <line x1="121.08" y1="176.44" x2="122.98" y2="181.67"/>
    <line x1="101.13" y1="182.90" x2="102.65" y2="188.25"/>
    <line x1="111.03" y1="180.00" x2="112.63" y2="185.33"/>
    <line x1="90.94" y1="185.37" x2="92.20" y2="190.78"/>
    <line x1="100.96" y1="182.94" x2="102.31" y2="188.34"/>
    <line x1="80.77" y1="187.44" x2="81.84" y2="192.90"/>
    <line x1="90.88" y1="185.38" x2="92.03" y2="190.82"/>
    <line x1="80.77" y1="187.44" x2="81.79" y2="192.91"/>
    <line x1="50.62" y1="187.68" x2="61.02" y2="182.20"/>
    <line x1="61.28" y1="196.37" x2="70.62" y2="189.23"/>
    <line x1="31.33" y1="176.96" x2="42.56" y2="173.46"/>
    <line x1="40.23" y1="187.43" x2="50.71" y2="182.12"/>
    <line x1="187.86" y1="39.36" x2="192.88" y2="36.95"/>
    <line x1="183.31" y1="30.11" x2="192.88" y2="36.95"/>
    <line x1="21.15" y1="174.82" x2="32.43" y2="171.50"/>
    <line x1="193.25" y1="56.06" x2="198.61" y2="54.59"/>
    <line x1="190.46" y1="46.13" x2="195.80" y2="44.58"/>
    <line x1="201.05" y1="72.99" x2="206.58" y2="72.50"/>
    <line x1="200.10" y1="62.63" x2="205.63" y2="62.11"/>
    <line x1="200.25" y1="90.54" x2="205.78" y2="91.00"/>
    <line x1="201.09" y1="80.17" x2="206.63" y2="80.61"/>
    <line x1="196.74" y1="106.81" x2="202.13" y2="108.16"/>
    <line x1="199.24" y1="96.72" x2="204.63" y2="98.04"/>
    <line x1="191.05" y1="121.55" x2="196.18" y2="123.70"/>
    <line x1="195.04" y1="111.95" x2="200.18" y2="114.07"/>
    <line x1="183.68" y1="134.63" x2="188.45" y2="137.47"/>
    <line x1="188.98" y1="125.68" x2="193.77" y2="128.50"/>
    <line x1="175.05" y1="146.02" x2="179.42" y2="149.46"/>
    <line x1="181.48" y1="137.84" x2="185.86" y2="141.26"/>
    <line x1="165.55" y1="155.80" x2="169.47" y2="159.74"/>
    <line x1="172.91" y1="148.44" x2="176.84" y2="152.36"/>
    <line x1="155.47" y1="164.06" x2="158.93" y2="168.41"/>
    <line x1="163.58" y1="157.56" x2="167.07" y2="161.89"/>
    <line x1="145.04" y1="170.97" x2="148.05" y2="175.63"/>
    <line x1="153.76" y1="165.30" x2="156.80" y2="169.95"/>
    <line x1="134.44" y1="176.67" x2="137.03" y2="181.59"/>
    <line x1="143.63" y1="171.80" x2="146.24" y2="176.70"/>
    <line x1="123.80" y1="181.35" x2="126.00" y2="186.45"/>
    <line x1="133.34" y1="177.20" x2="135.56" y2="182.29"/>
    <line x1="113.18" y1="185.15" x2="115.03" y2="190.39"/>
    <line x1="122.98" y1="181.67" x2="124.86" y2="186.90"/>
    <line x1="102.65" y1="188.25" x2="104.19" y2="193.59"/>
    <line x1="112.63" y1="185.33" x2="114.20" y2="190.66"/>
    <line x1="92.20" y1="190.78" x2="93.50" y2="196.19"/>
    <line x1="102.31" y1="188.34" x2="103.63" y2="193.74"/>
    <line x1="81.84" y1="192.90" x2="82.94" y2="198.35"/>
    <line x1="92.03" y1="190.82" x2="93.16" y2="196.26"/>
    <line x1="71.54" y1="194.72" x2="72.50" y2="200.19"/>
    <line x1="81.79" y1="192.91" x2="82.77" y2="198.38"/>
    <line x1="71.54" y1="194.72" x2="72.44" y2="200.20"/>
    <line x1="40.08" y1="192.99" x2="50.62" y2="187.68"/>
    <line x1="51.84" y1="203.45" x2="61.28" y2="196.37"/>
    <line x1="20.00" y1="180.26" x2="21.15" y2="174.82"/>
    <line x1="20.00" y1="180.26" x2="31.33" y2="176.96"/>
    <line x1="29.66" y1="192.69" x2="40.23" y2="187.43"/>
    <line x1="198.61" y1="54.59" x2="203.97" y2="53.10"/>
    <line x1="201.14" y1="43.06" x2="203.97" y2="53.10"/>
    <line x1="195.80" y1="44.58" x2="201.14" y2="43.06"/>
    <line x1="206.58" y1="72.50" x2="238.89" y2="64.30"/>
    <line x1="206.63" y1="80.61" x2="239.02" y2="88.47"/>
    <line x1="205.78" y1="91.00" x2="239.02" y2="88.47"/>
    <line x1="204.63" y1="98.04" x2="235.34" y2="111.02"/>
    <line x1="202.13" y1="108.16" x2="235.34" y2="111.02"/>
    <line x1="200.18" y1="114.07" x2="228.58" y2="131.53"/>
    <line x1="196.18" y1="123.70" x2="228.58" y2="131.53"/>
    <line x1="193.77" y1="128.50" x2="219.43" y2="149.77"/>
    <line x1="188.45" y1="137.47" x2="219.43" y2="149.77"/>
    <line x1="185.86" y1="141.26" x2="208.53" y2="165.69"/>
    <line x1="179.42" y1="149.46" x2="208.53" y2="165.69"/>
    <line x1="176.84" y1="152.36" x2="196.43" y2="179.33"/>
    <line x1="169.47" y1="159.74" x2="196.43" y2="179.33"/>
    <line x1="167.07" y1="161.89" x2="183.59" y2="190.84"/>
    <line x1="158.93" y1="168.41" x2="183.59" y2="190.84"/>
    <line x1="156.80" y1="169.95" x2="170.37" y2="200.39"/>
    <line x1="148.05" y1="175.63" x2="170.37" y2="200.39"/>
    <line x1="146.24" y1="176.70" x2="157.07" y2="208.23"/>
    <line x1="137.03" y1="181.59" x2="157.07" y2="208.23"/>
    <line x1="135.56" y1="182.29" x2="143.89" y2="214.57"/>
    <line x1="126.00" y1="186.45" x2="143.89" y2="214.57"/>
    <line x1="124.86" y1="186.90" x2="130.98" y2="219.66"/>
    <line x1="115.03" y1="190.39" x2="130.98" y2="219.66"/>
    <line x1="114.20" y1="190.66" x2="118.43" y2="223.72"/>
    <line x1="104.19" y1="193.59" x2="118.43" y2="223.72"/>
    <line x1="103.63" y1="193.74" x2="106.31" y2="226.96"/>
    <line x1="93.50" y1="196.19" x2="106.31" y2="226.96"/>
    <line x1="93.16" y1="196.26" x2="94.62" y2="229.56"/>
    <line x1="82.94" y1="198.35" x2="94.62" y2="229.56"/>
    <line x1="82.77" y1="198.38" x2="83.36" y2="231.71"/>
    <line x1="72.50" y1="200.19" x2="83.36" y2="231.71"/>
    <line x1="72.44" y1="200.20" x2="72.51" y2="233.53"/>
    <line x1="62.14" y1="201.85" x2="72.51" y2="233.53"/>
    <line x1="62.04" y1="235.19" x2="62.14" y2="201.85"/>
    <line x1="51.84" y1="203.45" x2="62.04" y2="235.19"/>
    <line x1="33.92" y1="225.75" x2="40.08" y2="192.99"/>
    <line x1="29.66" y1="192.69" x2="33.92" y2="225.75"/>
    <line x1="207.94" y1="51.94" x2="238.89" y2="64.30"/>
    <line x1="205.63" y1="62.11" x2="207.94" y2="51.94"/>
  </g>
  <!-- ENGRAVE LINES (Text Labels) -->
  <g fill="#000000" font-family="Arial" text-anchor="middle" stroke="none">
    <text x="102.90" y="76.26" font-size="2.7" transform="rotate(0.0 102.90,77.08)">-14.7°</text>
    <text x="102.84" y="75.63" font-size="2.7" transform="rotate(-10.5 102.84,76.46)">-14.7°</text>
    <text x="102.84" y="76.88" font-size="2.7" transform="rotate(10.5 102.84,77.70)">-14.7°</text>
    <text x="109.64" y="76.26" font-size="2.7" transform="rotate(-0.3 109.64,77.06)">-15.1°</text>
    <text x="102.67" y="75.03" font-size="2.7" transform="rotate(-20.9 102.67,75.85)">-14.7°</text>
    <text x="102.67" y="77.48" font-size="2.7" transform="rotate(20.9 102.67,78.30)">-14.7°</text>
    <text x="109.48" y="78.11" font-size="2.7" transform="rotate(10.2 109.48,78.91)">-15.1°</text>
    <text x="102.40" y="74.47" font-size="2.7" transform="rotate(-31.4 102.40,75.29)">-14.7°</text>
    <text x="102.40" y="78.04" font-size="2.7" transform="rotate(31.4 102.40,78.86)">-14.7°</text>
    <text x="108.98" y="79.90" font-size="2.7" transform="rotate(20.6 108.98,80.70)">-15.1°</text>
    <text x="115.98" y="79.17" font-size="2.6" transform="rotate(9.3 115.98,79.95)">-15.4°</text>
    <text x="102.02" y="73.97" font-size="2.7" transform="rotate(-41.9 102.02,74.79)">-14.7°</text>
    <text x="102.02" y="78.54" font-size="2.7" transform="rotate(41.9 102.02,79.36)">-14.7°</text>
    <text x="108.16" y="81.56" font-size="2.7" transform="rotate(31.1 108.16,82.36)">-15.1°</text>
    <text x="115.18" y="82.12" font-size="2.6" transform="rotate(19.7 115.18,82.90)">-15.4°</text>
    <text x="101.57" y="73.55" font-size="2.7" transform="rotate(-52.4 101.57,74.37)">-14.7°</text>
    <text x="101.57" y="78.97" font-size="2.7" transform="rotate(52.4 101.57,79.79)">-14.7°</text>
    <text x="107.06" y="83.06" font-size="2.7" transform="rotate(41.6 107.06,83.85)">-15.1°</text>
    <text x="113.86" y="84.88" font-size="2.6" transform="rotate(30.2 113.86,85.66)">-15.4°</text>
    <text x="121.37" y="84.05" font-size="2.5" transform="rotate(18.2 121.37,84.81)">-15.8°</text>
    <text x="101.04" y="73.21" font-size="2.7" transform="rotate(-62.8 101.04,74.03)">-14.7°</text>
    <text x="101.04" y="79.30" font-size="2.7" transform="rotate(62.8 101.04,80.12)">-14.7°</text>
    <text x="105.70" y="84.32" font-size="2.7" transform="rotate(52.1 105.70,85.12)">-15.1°</text>
    <text x="112.06" y="87.35" font-size="2.6" transform="rotate(40.7 112.06,88.13)">-15.4°</text>
    <text x="119.60" y="87.90" font-size="2.5" transform="rotate(28.7 119.60,88.66)">-15.8°</text>
    <text x="100.46" y="72.98" font-size="2.7" transform="rotate(-73.3 100.46,73.80)">-14.7°</text>
    <text x="100.46" y="79.53" font-size="2.7" transform="rotate(73.3 100.46,80.35)">-14.7°</text>
    <text x="104.13" y="85.32" font-size="2.7" transform="rotate(62.5 104.13,86.12)">-15.1°</text>
    <text x="109.84" y="89.46" font-size="2.6" transform="rotate(51.2 109.84,90.24)">-15.4°</text>
    <text x="117.16" y="91.36" font-size="2.5" transform="rotate(39.2 117.16,92.12)">-15.8°</text>
    <text x="125.47" y="90.52" font-size="2.5" transform="rotate(26.6 125.47,91.26)">-16.1°</text>
    <text x="99.85" y="72.86" font-size="2.7" transform="rotate(-83.8 99.85,73.68)">-14.7°</text>
    <text x="99.85" y="79.66" font-size="2.7" transform="rotate(83.8 99.85,80.48)">-14.7°</text>
    <text x="102.41" y="86.01" font-size="2.7" transform="rotate(73.0 102.41,86.81)">-15.1°</text>
    <text x="107.28" y="91.12" font-size="2.6" transform="rotate(61.6 107.28,91.90)">-15.4°</text>
    <text x="114.13" y="94.33" font-size="2.5" transform="rotate(49.7 114.13,95.09)">-15.8°</text>
    <text x="122.46" y="95.00" font-size="2.5" transform="rotate(37.1 122.46,95.75)">-16.1°</text>
    <text x="99.22" y="72.85" font-size="2.7" transform="rotate(85.7 99.22,73.67)">-14.7°</text>
    <text x="99.22" y="79.67" font-size="2.7" transform="rotate(-85.7 99.22,80.49)">-14.7°</text>
    <text x="100.59" y="86.38" font-size="2.7" transform="rotate(83.5 100.59,87.18)">-15.1°</text>
    <text x="104.45" y="92.29" font-size="2.6" transform="rotate(72.1 104.45,93.07)">-15.4°</text>
    <text x="110.61" y="96.69" font-size="2.5" transform="rotate(60.1 110.61,97.45)">-15.8°</text>
    <text x="118.68" y="98.87" font-size="2.5" transform="rotate(47.6 118.68,99.62)">-16.1°</text>
    <text x="128.08" y="98.19" font-size="2.4" transform="rotate(34.4 128.08,98.92)">-16.4°</text>
    <text x="98.74" y="86.42" font-size="2.7" transform="rotate(-86.0 98.74,87.22)">-15.1°</text>
    <text x="101.46" y="92.93" font-size="2.6" transform="rotate(82.6 101.46,93.71)">-15.4°</text>
    <text x="106.72" y="98.37" font-size="2.5" transform="rotate(70.6 106.72,99.13)">-15.8°</text>
    <text x="114.26" y="101.99" font-size="2.5" transform="rotate(58.0 114.26,102.73)">-16.1°</text>
    <text x="123.63" y="103.03" font-size="2.4" transform="rotate(44.9 123.63,103.76)">-16.4°</text>
    <text x="98.41" y="93.01" font-size="2.6" transform="rotate(-86.9 98.41,93.79)">-15.4°</text>
    <text x="102.59" y="99.32" font-size="2.5" transform="rotate(81.1 102.59,100.08)">-15.8°</text>
    <text x="109.35" y="104.25" font-size="2.5" transform="rotate(68.5 109.35,104.99)">-16.1°</text>
    <text x="118.38" y="106.97" font-size="2.4" transform="rotate(55.3 118.38,107.71)">-16.4°</text>
    <text x="129.10" y="106.70" font-size="2.4" transform="rotate(41.6 129.10,107.42)">-16.6°</text>
    <text x="95.38" y="92.54" font-size="2.6" transform="rotate(-76.5 95.38,93.32)">-15.4°</text>
    <text x="98.36" y="99.50" font-size="2.5" transform="rotate(-88.4 98.36,100.27)">-15.8°</text>
    <text x="104.12" y="105.58" font-size="2.5" transform="rotate(79.0 104.12,106.32)">-16.1°</text>
    <text x="112.50" y="109.90" font-size="2.4" transform="rotate(65.8 112.50,110.63)">-16.4°</text>
    <text x="123.09" y="111.58" font-size="2.4" transform="rotate(52.0 123.09,112.30)">-16.6°</text>
    <text x="94.16" y="98.91" font-size="2.5" transform="rotate(-78.0 94.16,99.68)">-15.8°</text>
    <text x="98.72" y="105.93" font-size="2.5" transform="rotate(89.5 98.72,106.68)">-16.1°</text>
    <text x="106.18" y="111.71" font-size="2.4" transform="rotate(76.3 106.18,112.44)">-16.4°</text>
    <text x="116.29" y="115.29" font-size="2.4" transform="rotate(62.5 116.29,116.01)">-16.6°</text>
    <text x="128.52" y="115.72" font-size="2.4" transform="rotate(48.2 128.52,116.43)">-16.9°</text>
    <text x="93.35" y="105.30" font-size="2.5" transform="rotate(-80.1 93.35,106.05)">-16.1°</text>
    <text x="99.64" y="112.34" font-size="2.4" transform="rotate(86.8 99.64,113.07)">-16.4°</text>
    <text x="108.94" y="117.70" font-size="2.4" transform="rotate(73.0 108.94,118.42)">-16.6°</text>
    <text x="120.88" y="120.35" font-size="2.4" transform="rotate(58.6 120.88,121.06)">-16.9°</text>
    <text x="88.19" y="103.71" font-size="2.5" transform="rotate(-69.6 88.19,104.45)">-16.1°</text>
    <text x="93.10" y="111.77" font-size="2.4" transform="rotate(-82.8 93.10,112.50)">-16.4°</text>
    <text x="101.26" y="118.73" font-size="2.4" transform="rotate(83.5 101.26,119.45)">-16.6°</text>
    <text x="112.53" y="123.51" font-size="2.4" transform="rotate(69.1 112.53,124.22)">-16.9°</text>
    <text x="126.41" y="124.97" font-size="2.3" transform="rotate(54.1 126.41,125.67)">-17.1°</text>
    <text x="86.76" y="110.02" font-size="2.4" transform="rotate(-72.3 86.76,110.75)">-16.4°</text>
    <text x="93.53" y="118.35" font-size="2.4" transform="rotate(-86.1 93.53,119.07)">-16.6°</text>
    <text x="103.75" y="125.09" font-size="2.4" transform="rotate(79.6 103.75,125.80)">-16.9°</text>
    <text x="117.12" y="129.06" font-size="2.3" transform="rotate(64.6 117.12,129.76)">-17.1°</text>
    <text x="86.00" y="116.56" font-size="2.4" transform="rotate(-75.6 86.00,117.29)">-16.6°</text>
    <text x="94.82" y="125.06" font-size="2.4" transform="rotate(-90.0 94.82,125.77)">-16.9°</text>
    <text x="107.25" y="131.39" font-size="2.3" transform="rotate(75.1 107.25,132.09)">-17.1°</text>
    <text x="122.86" y="134.22" font-size="2.3" transform="rotate(59.5 122.86,134.92)">-17.3°</text>
    <text x="78.91" y="113.44" font-size="2.4" transform="rotate(-65.1 78.91,114.17)">-16.6°</text>
    <text x="86.04" y="123.40" font-size="2.4" transform="rotate(-79.5 86.04,124.11)">-16.9°</text>
    <text x="97.12" y="131.88" font-size="2.3" transform="rotate(85.6 97.12,132.59)">-17.1°</text>
    <text x="111.96" y="137.51" font-size="2.3" transform="rotate(70.0 111.96,138.20)">-17.3°</text>
    <text x="77.72" y="120.17" font-size="2.4" transform="rotate(-69.0 77.72,120.88)">-16.9°</text>
    <text x="87.07" y="130.53" font-size="2.3" transform="rotate(-84.0 87.07,131.23)">-17.1°</text>
    <text x="100.64" y="138.76" font-size="2.3" transform="rotate(80.5 100.64,139.46)">-17.3°</text>
    <text x="118.03" y="143.31" font-size="2.3" transform="rotate(64.3 118.03,144.00)">-17.4°</text>
    <text x="77.43" y="127.37" font-size="2.3" transform="rotate(-73.5 77.43,128.08)">-17.1°</text>
    <text x="89.28" y="137.93" font-size="2.3" transform="rotate(-89.1 89.28,138.63)">-17.3°</text>
    <text x="105.56" y="145.57" font-size="2.3" transform="rotate(74.8 105.56,146.26)">-17.4°</text>
    <text x="68.53" y="122.52" font-size="2.3" transform="rotate(-63.0 68.53,123.22)">-17.1°</text>
    <text x="78.26" y="135.05" font-size="2.3" transform="rotate(-78.6 78.26,135.75)">-17.3°</text>
    <text x="92.88" y="145.52" font-size="2.3" transform="rotate(85.2 92.88,146.21)">-17.4°</text>
    <text x="112.07" y="152.13" font-size="2.3" transform="rotate(68.5 112.07,152.81)">-17.6°</text>
    <text x="67.95" y="130.22" font-size="2.3" transform="rotate(-68.1 67.95,130.91)">-17.3°</text>
    <text x="80.42" y="143.17" font-size="2.3" transform="rotate(-84.3 80.42,143.86)">-17.4°</text>
    <text x="98.10" y="153.16" font-size="2.3" transform="rotate(79.0 98.10,153.84)">-17.6°</text>
    <text x="68.60" y="138.59" font-size="2.3" transform="rotate(-73.8 68.60,139.28)">-17.4°</text>
    <text x="84.16" y="151.63" font-size="2.3" transform="rotate(89.4 84.16,152.31)">-17.6°</text>
    <text x="105.15" y="160.61" font-size="2.3" transform="rotate(72.1 105.15,161.29)">-17.7°</text>
    <text x="57.80" y="131.94" font-size="2.3" transform="rotate(-63.3 57.80,132.63)">-17.4°</text>
    <text x="70.74" y="147.59" font-size="2.3" transform="rotate(-80.1 70.74,148.27)">-17.6°</text>
    <text x="89.75" y="160.24" font-size="2.3" transform="rotate(82.5 89.75,160.92)">-17.7°</text>
    <text x="58.28" y="141.18" font-size="2.3" transform="rotate(-69.6 58.28,141.86)">-17.6°</text>
    <text x="74.67" y="157.08" font-size="2.3" transform="rotate(-87.0 74.67,157.75)">-17.7°</text>
    <text x="97.44" y="168.74" font-size="2.2" transform="rotate(75.1 97.44,169.41)">-17.8°</text>
    <text x="60.42" y="151.22" font-size="2.3" transform="rotate(-76.5 60.42,151.90)">-17.7°</text>
    <text x="80.69" y="166.83" font-size="2.2" transform="rotate(85.5 80.69,167.51)">-17.8°</text>
    <text x="47.47" y="142.88" font-size="2.3" transform="rotate(-66.0 47.47,143.55)">-17.7°</text>
    <text x="64.56" y="161.91" font-size="2.2" transform="rotate(-84.0 64.56,162.58)">-17.8°</text>
    <text x="89.09" y="176.53" font-size="2.2" transform="rotate(77.4 89.09,177.20)">-17.9°</text>
    <text x="49.60" y="154.14" font-size="2.2" transform="rotate(-73.5 49.60,154.81)">-17.8°</text>
    <text x="71.06" y="172.97" font-size="2.2" transform="rotate(87.9 71.06,173.64)">-17.9°</text>
    <text x="53.98" y="166.20" font-size="2.2" transform="rotate(-81.6 53.98,166.87)">-17.9°</text>
    <text x="80.25" y="184.03" font-size="2.2" transform="rotate(79.2 80.25,184.70)">-17.9°</text>
    <text x="38.41" y="156.43" font-size="2.2" transform="rotate(-71.1 38.41,157.10)">-17.9°</text>
    <text x="61.01" y="178.74" font-size="2.2" transform="rotate(89.7 61.01,179.41)">-17.9°</text>
    <text x="43.05" y="170.05" font-size="2.2" transform="rotate(-79.8 43.05,170.71)">-17.9°</text>
    <text x="71.08" y="191.31" font-size="2.2" transform="rotate(80.4 71.08,191.98)">-18.0°</text>
    <text x="50.67" y="184.23" font-size="2.2" transform="rotate(-89.1 50.67,184.90)">-18.0°</text>
    <text x="31.88" y="173.56" font-size="2.2" transform="rotate(-78.6 31.88,174.23)">-18.0°</text>
    <text x="61.71" y="198.44" font-size="2.2" transform="rotate(81.0 61.71,199.11)">-18.0°</text>
    <text x="40.15" y="189.54" font-size="2.2" transform="rotate(-88.5 40.15,190.21)">-18.0°</text>
    <text x="56.99" y="201.40" font-size="4.2" transform="rotate(-8.8 56.99,202.65)">+90.9°</text>
    <text x="67.29" y="199.78" font-size="4.2" transform="rotate(-9.1 67.29,201.03)">+90.9°</text>
    <text x="77.63" y="198.03" font-size="4.2" transform="rotate(-10.0 77.63,199.28)">+90.9°</text>
    <text x="88.05" y="196.05" font-size="4.2" transform="rotate(-11.5 88.05,197.30)">+90.9°</text>
    <text x="98.56" y="193.71" font-size="4.2" transform="rotate(-13.6 98.56,194.96)">+90.9°</text>
    <text x="109.20" y="190.87" font-size="4.2" transform="rotate(-16.3 109.20,192.12)">+90.9°</text>
    <text x="119.95" y="187.39" font-size="4.2" transform="rotate(-19.6 119.95,188.64)">+90.9°</text>
    <text x="130.78" y="183.12" font-size="4.2" transform="rotate(-23.5 130.78,184.37)">+90.9°</text>
    <text x="141.64" y="177.89" font-size="4.2" transform="rotate(-27.9 141.64,179.14)">+90.9°</text>
    <text x="152.43" y="171.54" font-size="4.2" transform="rotate(-33.0 152.43,172.79)">+90.9°</text>
    <text x="163.00" y="163.89" font-size="4.2" transform="rotate(-38.7 163.00,165.15)">+90.9°</text>
    <text x="173.16" y="154.80" font-size="4.2" transform="rotate(-45.0 173.16,156.05)">+90.9°</text>
    <text x="182.64" y="144.11" font-size="4.2" transform="rotate(-51.9 182.64,145.36)">+90.9°</text>
    <text x="191.11" y="131.73" font-size="4.2" transform="rotate(-59.3 191.11,132.99)">+90.9°</text>
    <text x="198.18" y="117.63" font-size="4.2" transform="rotate(-67.4 198.18,118.88)">+90.9°</text>
    <text x="203.38" y="101.85" font-size="4.2" transform="rotate(-76.1 203.38,103.10)">+90.9°</text>
    <text x="206.21" y="84.55" font-size="4.2" transform="rotate(-85.4 206.21,85.80)">+90.9°</text>
    <text x="206.11" y="66.05" font-size="4.2" transform="rotate(84.8 206.11,67.30)">+90.9°</text>
    <text x="34.87" y="191.59" font-size="4.2" transform="rotate(1.7 34.87,192.84)">+90.9°</text>
  </g>
</svg>